%TF.GenerationSoftware,KiCad,Pcbnew,8.0.2*%
%TF.CreationDate,2024-05-28T21:33:25+01:00*%
%TF.ProjectId,RMC_USBCT,524d435f-5553-4424-9354-2e6b69636164,rev?*%
%TF.SameCoordinates,Original*%
%TF.FileFunction,Copper,L2,Bot*%
%TF.FilePolarity,Positive*%
%FSLAX46Y46*%
G04 Gerber Fmt 4.6, Leading zero omitted, Abs format (unit mm)*
G04 Created by KiCad (PCBNEW 8.0.2) date 2024-05-28 21:33:25*
%MOMM*%
%LPD*%
G01*
G04 APERTURE LIST*
G04 Aperture macros list*
%AMRoundRect*
0 Rectangle with rounded corners*
0 $1 Rounding radius*
0 $2 $3 $4 $5 $6 $7 $8 $9 X,Y pos of 4 corners*
0 Add a 4 corners polygon primitive as box body*
4,1,4,$2,$3,$4,$5,$6,$7,$8,$9,$2,$3,0*
0 Add four circle primitives for the rounded corners*
1,1,$1+$1,$2,$3*
1,1,$1+$1,$4,$5*
1,1,$1+$1,$6,$7*
1,1,$1+$1,$8,$9*
0 Add four rect primitives between the rounded corners*
20,1,$1+$1,$2,$3,$4,$5,0*
20,1,$1+$1,$4,$5,$6,$7,0*
20,1,$1+$1,$6,$7,$8,$9,0*
20,1,$1+$1,$8,$9,$2,$3,0*%
G04 Aperture macros list end*
%TA.AperFunction,SMDPad,CuDef*%
%ADD10RoundRect,0.062500X-0.062500X-1.662500X0.062500X-1.662500X0.062500X1.662500X-0.062500X1.662500X0*%
%TD*%
%TA.AperFunction,SMDPad,CuDef*%
%ADD11RoundRect,0.062500X0.062500X1.662500X-0.062500X1.662500X-0.062500X-1.662500X0.062500X-1.662500X0*%
%TD*%
%TA.AperFunction,ComponentPad*%
%ADD12R,1.350000X1.350000*%
%TD*%
%TA.AperFunction,ComponentPad*%
%ADD13O,1.350000X1.350000*%
%TD*%
%TA.AperFunction,SMDPad,CuDef*%
%ADD14RoundRect,0.062500X0.062500X1.837500X-0.062500X1.837500X-0.062500X-1.837500X0.062500X-1.837500X0*%
%TD*%
%TA.AperFunction,SMDPad,CuDef*%
%ADD15RoundRect,0.062500X-0.062500X-1.837500X0.062500X-1.837500X0.062500X1.837500X-0.062500X1.837500X0*%
%TD*%
%TA.AperFunction,SMDPad,CuDef*%
%ADD16RoundRect,0.062500X0.062500X1.762500X-0.062500X1.762500X-0.062500X-1.762500X0.062500X-1.762500X0*%
%TD*%
%TA.AperFunction,ViaPad*%
%ADD17C,0.500000*%
%TD*%
%TA.AperFunction,Conductor*%
%ADD18C,0.200000*%
%TD*%
%TA.AperFunction,Conductor*%
%ADD19C,0.325000*%
%TD*%
%TA.AperFunction,Conductor*%
%ADD20C,0.250000*%
%TD*%
G04 APERTURE END LIST*
D10*
%TO.P,J1,*%
%TO.N,*%
X119750000Y-82725000D03*
X120250000Y-82725000D03*
X121250000Y-82725000D03*
D11*
X123750000Y-82725000D03*
D10*
X124250000Y-82725000D03*
D12*
%TO.P,J1,1,Pin_1*%
%TO.N,GND*%
X117000000Y-77500000D03*
D13*
X117000000Y-79500000D03*
D14*
X119250000Y-82900000D03*
D15*
X124750000Y-82900000D03*
D13*
%TO.P,J1,2,Pin_2*%
%TO.N,D+*%
X119000000Y-77500000D03*
D11*
X122250000Y-82725000D03*
D13*
%TO.P,J1,3,Pin_3*%
%TO.N,D-*%
X121000000Y-77500000D03*
D10*
X121750000Y-82725000D03*
D13*
%TO.P,J1,4,Pin_4*%
%TO.N,CC1*%
X123000000Y-77500000D03*
D11*
%TO.P,J1,5,Pin_5*%
%TO.N,CC2*%
X122750000Y-82725000D03*
D13*
X125000000Y-77500000D03*
D16*
%TO.P,J1,6,Pin_6*%
%TO.N,VCC*%
X120750000Y-82825000D03*
X123250000Y-82825000D03*
D13*
X127000000Y-77500000D03*
X127000000Y-79500000D03*
%TD*%
D17*
%TO.N,D-*%
X122650000Y-80150000D03*
%TO.N,VCC*%
X120250000Y-80550000D03*
X124050000Y-80550000D03*
%TO.N,CC2*%
X125000000Y-79500000D03*
%TO.N,CC1*%
X120900000Y-80250000D03*
X123150000Y-79650000D03*
%TO.N,D+*%
X122000000Y-80450000D03*
%TO.N,GND*%
X119250000Y-80550000D03*
X124150000Y-78400000D03*
X124800000Y-80725000D03*
%TD*%
D18*
%TO.N,D-*%
X122650000Y-80150000D02*
X122400000Y-79900000D01*
X121750000Y-80977818D02*
X121750000Y-82725000D01*
X121772182Y-79900000D02*
X121450000Y-80222182D01*
X121450000Y-80677818D02*
X121750000Y-80977818D01*
X122400000Y-79900000D02*
X121772182Y-79900000D01*
X121450000Y-80222182D02*
X121450000Y-80677818D01*
D19*
%TO.N,VCC*%
X124050000Y-80550000D02*
X124487500Y-80112500D01*
X125253706Y-78887500D02*
X125508103Y-79141897D01*
X121246294Y-79037500D02*
X124596294Y-79037500D01*
X125508103Y-79858103D02*
X125866206Y-79500000D01*
X125612500Y-79753706D02*
X125612500Y-79246294D01*
X125866206Y-79500000D02*
X127000000Y-79500000D01*
D20*
X120349740Y-80550000D02*
X120250000Y-80550000D01*
D19*
X124596294Y-79037500D02*
X124746294Y-78887500D01*
X124746294Y-78887500D02*
X125253706Y-78887500D01*
X125508103Y-79141897D02*
X125866206Y-79500000D01*
X127000000Y-79500000D02*
X127000000Y-77500000D01*
D18*
X123250000Y-82825000D02*
X123250000Y-80985614D01*
D19*
X125508103Y-79858103D02*
X125612500Y-79753706D01*
X120250000Y-80550000D02*
X120250000Y-80033794D01*
X125253706Y-80112500D02*
X125508103Y-79858103D01*
X125612500Y-79246294D02*
X125508103Y-79141897D01*
X120250000Y-80033794D02*
X121246294Y-79037500D01*
D18*
X123685614Y-80550000D02*
X124050000Y-80550000D01*
X123250000Y-80985614D02*
X123685614Y-80550000D01*
D20*
X120750000Y-82825000D02*
X120750000Y-80950260D01*
X120750000Y-80950260D02*
X120349740Y-80550000D01*
D19*
X124487500Y-80112500D02*
X125253706Y-80112500D01*
D18*
%TO.N,CC2*%
X125000000Y-79500000D02*
X124169928Y-79500000D01*
X122750000Y-80919928D02*
X122750000Y-82725000D01*
X124169928Y-79500000D02*
X122750000Y-80919928D01*
%TO.N,CC1*%
X121606496Y-79500000D02*
X120900000Y-80206496D01*
X122665686Y-79600000D02*
X122565686Y-79500000D01*
X123150000Y-79650000D02*
X123100000Y-79600000D01*
X120900000Y-80206496D02*
X120900000Y-80250000D01*
X122565686Y-79500000D02*
X121606496Y-79500000D01*
X123100000Y-79600000D02*
X122665686Y-79600000D01*
%TO.N,D+*%
X122000000Y-80450000D02*
X122250000Y-80700000D01*
X122250000Y-80700000D02*
X122250000Y-82725000D01*
D20*
%TO.N,GND*%
X124750000Y-82900000D02*
X124750000Y-80775000D01*
X124750000Y-80775000D02*
X124800000Y-80725000D01*
X119250000Y-82900000D02*
X119250000Y-80550000D01*
%TD*%
%TA.AperFunction,Conductor*%
%TO.N,GND*%
G36*
X118245182Y-76820185D02*
G01*
X118290937Y-76872989D01*
X118300881Y-76942147D01*
X118285530Y-76986500D01*
X118195786Y-77141940D01*
X118195783Y-77141946D01*
X118138916Y-77316967D01*
X118138915Y-77316971D01*
X118119678Y-77500000D01*
X118138915Y-77683029D01*
X118138916Y-77683032D01*
X118195783Y-77858053D01*
X118195786Y-77858059D01*
X118287805Y-78017440D01*
X118300500Y-78031539D01*
X118410949Y-78154206D01*
X118410951Y-78154208D01*
X118559834Y-78262378D01*
X118559835Y-78262378D01*
X118559839Y-78262381D01*
X118667294Y-78310223D01*
X118727961Y-78337234D01*
X118727966Y-78337236D01*
X118907981Y-78375500D01*
X119092019Y-78375500D01*
X119272034Y-78337236D01*
X119440161Y-78262381D01*
X119589050Y-78154207D01*
X119712195Y-78017440D01*
X119804214Y-77858059D01*
X119861085Y-77683029D01*
X119876679Y-77534655D01*
X119890862Y-77500184D01*
X119878023Y-77474687D01*
X119876679Y-77465342D01*
X119861085Y-77316971D01*
X119804214Y-77141941D01*
X119714470Y-76986500D01*
X119697997Y-76918600D01*
X119720850Y-76852573D01*
X119775771Y-76809382D01*
X119821857Y-76800500D01*
X120178143Y-76800500D01*
X120245182Y-76820185D01*
X120290937Y-76872989D01*
X120300881Y-76942147D01*
X120285530Y-76986500D01*
X120195786Y-77141940D01*
X120195783Y-77141946D01*
X120138916Y-77316967D01*
X120138915Y-77316971D01*
X120123321Y-77465342D01*
X120109137Y-77499814D01*
X120121977Y-77525312D01*
X120123319Y-77534646D01*
X120138915Y-77683029D01*
X120138916Y-77683032D01*
X120195783Y-77858053D01*
X120195786Y-77858059D01*
X120287805Y-78017440D01*
X120300500Y-78031539D01*
X120410949Y-78154206D01*
X120410951Y-78154208D01*
X120559834Y-78262378D01*
X120559835Y-78262378D01*
X120559839Y-78262381D01*
X120667294Y-78310223D01*
X120727961Y-78337234D01*
X120727966Y-78337236D01*
X120907981Y-78375500D01*
X121092019Y-78375500D01*
X121272034Y-78337236D01*
X121440161Y-78262381D01*
X121589050Y-78154207D01*
X121712195Y-78017440D01*
X121804214Y-77858059D01*
X121861085Y-77683029D01*
X121876679Y-77534655D01*
X121890862Y-77500184D01*
X121878023Y-77474687D01*
X121876679Y-77465342D01*
X121861085Y-77316971D01*
X121804214Y-77141941D01*
X121714470Y-76986500D01*
X121697997Y-76918600D01*
X121720850Y-76852573D01*
X121775771Y-76809382D01*
X121821857Y-76800500D01*
X122178143Y-76800500D01*
X122245182Y-76820185D01*
X122290937Y-76872989D01*
X122300881Y-76942147D01*
X122285530Y-76986500D01*
X122195786Y-77141940D01*
X122195783Y-77141946D01*
X122138916Y-77316967D01*
X122138915Y-77316971D01*
X122123321Y-77465342D01*
X122109137Y-77499814D01*
X122121977Y-77525312D01*
X122123319Y-77534646D01*
X122138915Y-77683029D01*
X122138916Y-77683032D01*
X122195783Y-77858053D01*
X122195786Y-77858059D01*
X122287805Y-78017440D01*
X122300500Y-78031539D01*
X122410949Y-78154206D01*
X122410951Y-78154208D01*
X122559834Y-78262378D01*
X122559835Y-78262378D01*
X122559839Y-78262381D01*
X122667294Y-78310223D01*
X122727961Y-78337234D01*
X122727966Y-78337236D01*
X122907981Y-78375500D01*
X123092019Y-78375500D01*
X123272034Y-78337236D01*
X123440161Y-78262381D01*
X123589050Y-78154207D01*
X123712195Y-78017440D01*
X123804214Y-77858059D01*
X123861085Y-77683029D01*
X123876679Y-77534655D01*
X123890862Y-77500184D01*
X123878023Y-77474687D01*
X123876679Y-77465342D01*
X123861085Y-77316971D01*
X123804214Y-77141941D01*
X123714470Y-76986500D01*
X123697997Y-76918600D01*
X123720850Y-76852573D01*
X123775771Y-76809382D01*
X123821857Y-76800500D01*
X124178143Y-76800500D01*
X124245182Y-76820185D01*
X124290937Y-76872989D01*
X124300881Y-76942147D01*
X124285530Y-76986500D01*
X124195786Y-77141940D01*
X124195783Y-77141946D01*
X124138916Y-77316967D01*
X124138915Y-77316971D01*
X124123321Y-77465342D01*
X124109137Y-77499814D01*
X124121977Y-77525312D01*
X124123319Y-77534646D01*
X124138915Y-77683029D01*
X124138916Y-77683032D01*
X124195783Y-77858053D01*
X124195786Y-77858059D01*
X124287805Y-78017440D01*
X124300500Y-78031539D01*
X124410949Y-78154206D01*
X124410951Y-78154208D01*
X124555811Y-78259455D01*
X124559839Y-78262381D01*
X124659585Y-78306790D01*
X124712820Y-78352040D01*
X124733141Y-78418889D01*
X124714096Y-78486113D01*
X124661730Y-78532368D01*
X124641244Y-78539842D01*
X124627465Y-78543534D01*
X124606179Y-78549238D01*
X124523407Y-78597028D01*
X124523404Y-78597030D01*
X124482254Y-78638181D01*
X124420931Y-78671666D01*
X124394573Y-78674500D01*
X121198504Y-78674500D01*
X121106181Y-78699238D01*
X121106179Y-78699238D01*
X121106179Y-78699239D01*
X121023407Y-78747028D01*
X121023404Y-78747030D01*
X119959530Y-79810904D01*
X119959528Y-79810907D01*
X119918087Y-79882685D01*
X119911738Y-79893681D01*
X119887000Y-79986004D01*
X119887000Y-79986006D01*
X119887000Y-80236590D01*
X119869739Y-80295385D01*
X119870802Y-80295871D01*
X119867426Y-80303261D01*
X119867321Y-80303622D01*
X119867117Y-80303938D01*
X119813302Y-80421774D01*
X119794867Y-80550000D01*
X119810373Y-80657854D01*
X119800429Y-80727012D01*
X119754674Y-80779816D01*
X119687639Y-80799500D01*
X119661602Y-80799500D01*
X119584881Y-80814760D01*
X119584879Y-80814761D01*
X119497888Y-80872887D01*
X119478983Y-80901180D01*
X119449776Y-80944891D01*
X119396167Y-80989696D01*
X119346676Y-81000000D01*
X119073797Y-81000000D01*
X119006758Y-80980315D01*
X118961003Y-80927511D01*
X118952507Y-80901781D01*
X118920514Y-80751269D01*
X118920512Y-80751264D01*
X118896785Y-80697973D01*
X118852072Y-80597546D01*
X118753164Y-80461411D01*
X118628114Y-80348815D01*
X118482386Y-80264679D01*
X118482380Y-80264676D01*
X118322353Y-80212681D01*
X118322350Y-80212680D01*
X118155000Y-80195091D01*
X117987650Y-80212680D01*
X117987647Y-80212680D01*
X117987646Y-80212681D01*
X117827619Y-80264676D01*
X117827613Y-80264679D01*
X117681887Y-80348814D01*
X117556837Y-80461409D01*
X117457930Y-80597542D01*
X117457928Y-80597545D01*
X117457928Y-80597546D01*
X117445286Y-80625938D01*
X117400038Y-80679173D01*
X117333189Y-80699494D01*
X117332009Y-80699500D01*
X116509756Y-80699500D01*
X116490360Y-80697973D01*
X116474110Y-80695399D01*
X116457749Y-80692808D01*
X116420853Y-80680820D01*
X116400234Y-80670314D01*
X116368848Y-80647510D01*
X116352489Y-80631151D01*
X116329685Y-80599765D01*
X116319178Y-80579144D01*
X116307192Y-80542253D01*
X116302025Y-80509630D01*
X116300500Y-80490244D01*
X116300500Y-76924500D01*
X116320185Y-76857461D01*
X116372989Y-76811706D01*
X116424500Y-76800500D01*
X118178143Y-76800500D01*
X118245182Y-76820185D01*
G37*
%TD.AperFunction*%
%TA.AperFunction,Conductor*%
G36*
X125078362Y-80495185D02*
G01*
X125124117Y-80547989D01*
X125134061Y-80617147D01*
X125124604Y-80649932D01*
X125103215Y-80697973D01*
X125079485Y-80751271D01*
X125047493Y-80901781D01*
X125014300Y-80963263D01*
X124953137Y-80997039D01*
X124926203Y-81000000D01*
X124653325Y-81000000D01*
X124586286Y-80980315D01*
X124550223Y-80944891D01*
X124502112Y-80872888D01*
X124493474Y-80864250D01*
X124496127Y-80861596D01*
X124465124Y-80824504D01*
X124456412Y-80755179D01*
X124466021Y-80723497D01*
X124486697Y-80678226D01*
X124489481Y-80658854D01*
X124518503Y-80595302D01*
X124524539Y-80588819D01*
X124601542Y-80511818D01*
X124662865Y-80478333D01*
X124689222Y-80475500D01*
X125011323Y-80475500D01*
X125078362Y-80495185D01*
G37*
%TD.AperFunction*%
%TD*%
M02*
