%TF.GenerationSoftware,KiCad,Pcbnew,8.0.2*%
%TF.CreationDate,2024-05-28T21:34:03+01:00*%
%TF.ProjectId,RMC_USBCT,524d435f-5553-4424-9354-2e6b69636164,rev?*%
%TF.SameCoordinates,Original*%
%TF.FileFunction,Drillmap*%
%TF.FilePolarity,Positive*%
%FSLAX45Y45*%
G04 Gerber Fmt 4.5, Leading zero omitted, Abs format (unit mm)*
G04 Created by KiCad (PCBNEW 8.0.2) date 2024-05-28 21:34:03*
%MOMM*%
%LPD*%
G01*
G04 APERTURE LIST*
%ADD10C,0.050000*%
%ADD11C,0.200000*%
G04 APERTURE END LIST*
D10*
X11600000Y-7650000D02*
X11600000Y-8050000D01*
X12800000Y-7650000D02*
X11600000Y-7650000D01*
X12800000Y-8050000D02*
X12800000Y-7650000D01*
X11765500Y-8100000D02*
X11650000Y-8100000D01*
X11865500Y-8470000D02*
X11865500Y-8100000D01*
X11865500Y-8470000D02*
X11895500Y-8545000D01*
X12504500Y-8545000D02*
X11895500Y-8545000D01*
X12534500Y-8470000D02*
X12504500Y-8545000D01*
X12534500Y-8470000D02*
X12534500Y-8100000D01*
X12634500Y-8100000D02*
X12750000Y-8100000D01*
X11650000Y-8100000D02*
G75*
G02*
X11600000Y-8050000I0J50000D01*
G01*
X11765500Y-8100000D02*
G75*
G02*
X11865500Y-8100000I50000J0D01*
G01*
X12534500Y-8100000D02*
G75*
G02*
X12634500Y-8100000I50000J0D01*
G01*
X12800000Y-8050000D02*
G75*
G02*
X12750000Y-8100000I-50000J0D01*
G01*
D11*
X11858277Y-8858984D02*
X11858277Y-8658984D01*
X11858277Y-8658984D02*
X11905896Y-8658984D01*
X11905896Y-8658984D02*
X11934467Y-8668508D01*
X11934467Y-8668508D02*
X11953515Y-8687555D01*
X11953515Y-8687555D02*
X11963039Y-8706603D01*
X11963039Y-8706603D02*
X11972562Y-8744698D01*
X11972562Y-8744698D02*
X11972562Y-8773270D01*
X11972562Y-8773270D02*
X11963039Y-8811365D01*
X11963039Y-8811365D02*
X11953515Y-8830412D01*
X11953515Y-8830412D02*
X11934467Y-8849460D01*
X11934467Y-8849460D02*
X11905896Y-8858984D01*
X11905896Y-8858984D02*
X11858277Y-8858984D01*
X12058277Y-8858984D02*
X12058277Y-8725650D01*
X12058277Y-8763746D02*
X12067801Y-8744698D01*
X12067801Y-8744698D02*
X12077324Y-8735174D01*
X12077324Y-8735174D02*
X12096372Y-8725650D01*
X12096372Y-8725650D02*
X12115420Y-8725650D01*
X12182086Y-8858984D02*
X12182086Y-8725650D01*
X12182086Y-8658984D02*
X12172562Y-8668508D01*
X12172562Y-8668508D02*
X12182086Y-8678031D01*
X12182086Y-8678031D02*
X12191610Y-8668508D01*
X12191610Y-8668508D02*
X12182086Y-8658984D01*
X12182086Y-8658984D02*
X12182086Y-8678031D01*
X12305896Y-8858984D02*
X12286848Y-8849460D01*
X12286848Y-8849460D02*
X12277324Y-8830412D01*
X12277324Y-8830412D02*
X12277324Y-8658984D01*
X12410658Y-8858984D02*
X12391610Y-8849460D01*
X12391610Y-8849460D02*
X12382086Y-8830412D01*
X12382086Y-8830412D02*
X12382086Y-8658984D01*
X12639229Y-8858984D02*
X12639229Y-8658984D01*
X12639229Y-8658984D02*
X12705896Y-8801841D01*
X12705896Y-8801841D02*
X12772562Y-8658984D01*
X12772562Y-8658984D02*
X12772562Y-8858984D01*
X12953515Y-8858984D02*
X12953515Y-8754222D01*
X12953515Y-8754222D02*
X12943991Y-8735174D01*
X12943991Y-8735174D02*
X12924943Y-8725650D01*
X12924943Y-8725650D02*
X12886848Y-8725650D01*
X12886848Y-8725650D02*
X12867801Y-8735174D01*
X12953515Y-8849460D02*
X12934467Y-8858984D01*
X12934467Y-8858984D02*
X12886848Y-8858984D01*
X12886848Y-8858984D02*
X12867801Y-8849460D01*
X12867801Y-8849460D02*
X12858277Y-8830412D01*
X12858277Y-8830412D02*
X12858277Y-8811365D01*
X12858277Y-8811365D02*
X12867801Y-8792317D01*
X12867801Y-8792317D02*
X12886848Y-8782793D01*
X12886848Y-8782793D02*
X12934467Y-8782793D01*
X12934467Y-8782793D02*
X12953515Y-8773270D01*
X13048753Y-8725650D02*
X13048753Y-8925650D01*
X13048753Y-8735174D02*
X13067801Y-8725650D01*
X13067801Y-8725650D02*
X13105896Y-8725650D01*
X13105896Y-8725650D02*
X13124943Y-8735174D01*
X13124943Y-8735174D02*
X13134467Y-8744698D01*
X13134467Y-8744698D02*
X13143991Y-8763746D01*
X13143991Y-8763746D02*
X13143991Y-8820889D01*
X13143991Y-8820889D02*
X13134467Y-8839936D01*
X13134467Y-8839936D02*
X13124943Y-8849460D01*
X13124943Y-8849460D02*
X13105896Y-8858984D01*
X13105896Y-8858984D02*
X13067801Y-8858984D01*
X13067801Y-8858984D02*
X13048753Y-8849460D01*
X13229705Y-8839936D02*
X13239229Y-8849460D01*
X13239229Y-8849460D02*
X13229705Y-8858984D01*
X13229705Y-8858984D02*
X13220182Y-8849460D01*
X13220182Y-8849460D02*
X13229705Y-8839936D01*
X13229705Y-8839936D02*
X13229705Y-8858984D01*
X13229705Y-8735174D02*
X13239229Y-8744698D01*
X13239229Y-8744698D02*
X13229705Y-8754222D01*
X13229705Y-8754222D02*
X13220182Y-8744698D01*
X13220182Y-8744698D02*
X13229705Y-8735174D01*
X13229705Y-8735174D02*
X13229705Y-8754222D01*
M02*
