%TF.GenerationSoftware,KiCad,Pcbnew,8.0.2*%
%TF.CreationDate,2024-05-28T21:34:03+01:00*%
%TF.ProjectId,RMC_USBCT,524d435f-5553-4424-9354-2e6b69636164,rev?*%
%TF.SameCoordinates,Original*%
%TF.FileFunction,Drillmap*%
%TF.FilePolarity,Positive*%
%FSLAX45Y45*%
G04 Gerber Fmt 4.5, Leading zero omitted, Abs format (unit mm)*
G04 Created by KiCad (PCBNEW 8.0.2) date 2024-05-28 21:34:03*
%MOMM*%
%LPD*%
G01*
G04 APERTURE LIST*
%ADD10C,0.050000*%
%ADD11C,0.200000*%
%ADD12C,0.100000*%
G04 APERTURE END LIST*
D10*
X11600000Y-7650000D02*
X11600000Y-8050000D01*
X12800000Y-7650000D02*
X11600000Y-7650000D01*
X12800000Y-8050000D02*
X12800000Y-7650000D01*
X11765500Y-8100000D02*
X11650000Y-8100000D01*
X11865500Y-8470000D02*
X11865500Y-8100000D01*
X11865500Y-8470000D02*
X11895500Y-8545000D01*
X12504500Y-8545000D02*
X11895500Y-8545000D01*
X12534500Y-8470000D02*
X12504500Y-8545000D01*
X12534500Y-8470000D02*
X12534500Y-8100000D01*
X12634500Y-8100000D02*
X12750000Y-8100000D01*
X11650000Y-8100000D02*
G75*
G02*
X11600000Y-8050000I0J50000D01*
G01*
X11765500Y-8100000D02*
G75*
G02*
X11865500Y-8100000I50000J0D01*
G01*
X12534500Y-8100000D02*
G75*
G02*
X12634500Y-8100000I50000J0D01*
G01*
X12800000Y-8050000D02*
G75*
G02*
X12750000Y-8100000I-50000J0D01*
G01*
D11*
D12*
X11910000Y-8040000D02*
X11940000Y-8070000D01*
X11940000Y-8040000D02*
X11910000Y-8070000D01*
X12010000Y-8040000D02*
X12040000Y-8070000D01*
X12040000Y-8040000D02*
X12010000Y-8070000D01*
X12075000Y-8010000D02*
X12105000Y-8040000D01*
X12105000Y-8010000D02*
X12075000Y-8040000D01*
X12185000Y-8030000D02*
X12215000Y-8060000D01*
X12215000Y-8030000D02*
X12185000Y-8060000D01*
X12250000Y-8000000D02*
X12280000Y-8030000D01*
X12280000Y-8000000D02*
X12250000Y-8030000D01*
X12300000Y-7950000D02*
X12330000Y-7980000D01*
X12330000Y-7950000D02*
X12300000Y-7980000D01*
X12390000Y-8040000D02*
X12420000Y-8070000D01*
X12420000Y-8040000D02*
X12390000Y-8070000D01*
X12400000Y-7825000D02*
X12430000Y-7855000D01*
X12430000Y-7825000D02*
X12400000Y-7855000D01*
X12465000Y-8057500D02*
X12495000Y-8087500D01*
X12495000Y-8057500D02*
X12465000Y-8087500D01*
X12485000Y-7935000D02*
X12515000Y-7965000D01*
X12515000Y-7935000D02*
X12485000Y-7965000D01*
X11740000Y-7750000D02*
G75*
G02*
X11660000Y-7750000I-40000J0D01*
G01*
X11660000Y-7750000D02*
G75*
G02*
X11740000Y-7750000I40000J0D01*
G01*
X11740000Y-7950000D02*
G75*
G02*
X11660000Y-7950000I-40000J0D01*
G01*
X11660000Y-7950000D02*
G75*
G02*
X11740000Y-7950000I40000J0D01*
G01*
X11940000Y-7750000D02*
G75*
G02*
X11860000Y-7750000I-40000J0D01*
G01*
X11860000Y-7750000D02*
G75*
G02*
X11940000Y-7750000I40000J0D01*
G01*
X12140000Y-7750000D02*
G75*
G02*
X12060000Y-7750000I-40000J0D01*
G01*
X12060000Y-7750000D02*
G75*
G02*
X12140000Y-7750000I40000J0D01*
G01*
X12340000Y-7750000D02*
G75*
G02*
X12260000Y-7750000I-40000J0D01*
G01*
X12260000Y-7750000D02*
G75*
G02*
X12340000Y-7750000I40000J0D01*
G01*
X12540000Y-7750000D02*
G75*
G02*
X12460000Y-7750000I-40000J0D01*
G01*
X12460000Y-7750000D02*
G75*
G02*
X12540000Y-7750000I40000J0D01*
G01*
X12740000Y-7750000D02*
G75*
G02*
X12660000Y-7750000I-40000J0D01*
G01*
X12660000Y-7750000D02*
G75*
G02*
X12740000Y-7750000I40000J0D01*
G01*
X12740000Y-7950000D02*
G75*
G02*
X12660000Y-7950000I-40000J0D01*
G01*
X12660000Y-7950000D02*
G75*
G02*
X12740000Y-7950000I40000J0D01*
G01*
D11*
X11858277Y-8858984D02*
X11858277Y-8658984D01*
X11858277Y-8658984D02*
X11905896Y-8658984D01*
X11905896Y-8658984D02*
X11934467Y-8668508D01*
X11934467Y-8668508D02*
X11953515Y-8687555D01*
X11953515Y-8687555D02*
X11963039Y-8706603D01*
X11963039Y-8706603D02*
X11972562Y-8744698D01*
X11972562Y-8744698D02*
X11972562Y-8773270D01*
X11972562Y-8773270D02*
X11963039Y-8811365D01*
X11963039Y-8811365D02*
X11953515Y-8830412D01*
X11953515Y-8830412D02*
X11934467Y-8849460D01*
X11934467Y-8849460D02*
X11905896Y-8858984D01*
X11905896Y-8858984D02*
X11858277Y-8858984D01*
X12058277Y-8858984D02*
X12058277Y-8725650D01*
X12058277Y-8763746D02*
X12067801Y-8744698D01*
X12067801Y-8744698D02*
X12077324Y-8735174D01*
X12077324Y-8735174D02*
X12096372Y-8725650D01*
X12096372Y-8725650D02*
X12115420Y-8725650D01*
X12182086Y-8858984D02*
X12182086Y-8725650D01*
X12182086Y-8658984D02*
X12172562Y-8668508D01*
X12172562Y-8668508D02*
X12182086Y-8678031D01*
X12182086Y-8678031D02*
X12191610Y-8668508D01*
X12191610Y-8668508D02*
X12182086Y-8658984D01*
X12182086Y-8658984D02*
X12182086Y-8678031D01*
X12305896Y-8858984D02*
X12286848Y-8849460D01*
X12286848Y-8849460D02*
X12277324Y-8830412D01*
X12277324Y-8830412D02*
X12277324Y-8658984D01*
X12410658Y-8858984D02*
X12391610Y-8849460D01*
X12391610Y-8849460D02*
X12382086Y-8830412D01*
X12382086Y-8830412D02*
X12382086Y-8658984D01*
X12639229Y-8858984D02*
X12639229Y-8658984D01*
X12639229Y-8658984D02*
X12705896Y-8801841D01*
X12705896Y-8801841D02*
X12772562Y-8658984D01*
X12772562Y-8658984D02*
X12772562Y-8858984D01*
X12953515Y-8858984D02*
X12953515Y-8754222D01*
X12953515Y-8754222D02*
X12943991Y-8735174D01*
X12943991Y-8735174D02*
X12924943Y-8725650D01*
X12924943Y-8725650D02*
X12886848Y-8725650D01*
X12886848Y-8725650D02*
X12867801Y-8735174D01*
X12953515Y-8849460D02*
X12934467Y-8858984D01*
X12934467Y-8858984D02*
X12886848Y-8858984D01*
X12886848Y-8858984D02*
X12867801Y-8849460D01*
X12867801Y-8849460D02*
X12858277Y-8830412D01*
X12858277Y-8830412D02*
X12858277Y-8811365D01*
X12858277Y-8811365D02*
X12867801Y-8792317D01*
X12867801Y-8792317D02*
X12886848Y-8782793D01*
X12886848Y-8782793D02*
X12934467Y-8782793D01*
X12934467Y-8782793D02*
X12953515Y-8773270D01*
X13048753Y-8725650D02*
X13048753Y-8925650D01*
X13048753Y-8735174D02*
X13067801Y-8725650D01*
X13067801Y-8725650D02*
X13105896Y-8725650D01*
X13105896Y-8725650D02*
X13124943Y-8735174D01*
X13124943Y-8735174D02*
X13134467Y-8744698D01*
X13134467Y-8744698D02*
X13143991Y-8763746D01*
X13143991Y-8763746D02*
X13143991Y-8820889D01*
X13143991Y-8820889D02*
X13134467Y-8839936D01*
X13134467Y-8839936D02*
X13124943Y-8849460D01*
X13124943Y-8849460D02*
X13105896Y-8858984D01*
X13105896Y-8858984D02*
X13067801Y-8858984D01*
X13067801Y-8858984D02*
X13048753Y-8849460D01*
X13229705Y-8839936D02*
X13239229Y-8849460D01*
X13239229Y-8849460D02*
X13229705Y-8858984D01*
X13229705Y-8858984D02*
X13220182Y-8849460D01*
X13220182Y-8849460D02*
X13229705Y-8839936D01*
X13229705Y-8839936D02*
X13229705Y-8858984D01*
X13229705Y-8735174D02*
X13239229Y-8744698D01*
X13239229Y-8744698D02*
X13229705Y-8754222D01*
X13229705Y-8754222D02*
X13220182Y-8744698D01*
X13220182Y-8744698D02*
X13229705Y-8735174D01*
X13229705Y-8735174D02*
X13229705Y-8754222D01*
D12*
X11567500Y-9172500D02*
X11597500Y-9202500D01*
X11597500Y-9172500D02*
X11567500Y-9202500D01*
D11*
X11896372Y-9078984D02*
X11915420Y-9078984D01*
X11915420Y-9078984D02*
X11934467Y-9088508D01*
X11934467Y-9088508D02*
X11943991Y-9098031D01*
X11943991Y-9098031D02*
X11953515Y-9117079D01*
X11953515Y-9117079D02*
X11963039Y-9155174D01*
X11963039Y-9155174D02*
X11963039Y-9202793D01*
X11963039Y-9202793D02*
X11953515Y-9240889D01*
X11953515Y-9240889D02*
X11943991Y-9259936D01*
X11943991Y-9259936D02*
X11934467Y-9269460D01*
X11934467Y-9269460D02*
X11915420Y-9278984D01*
X11915420Y-9278984D02*
X11896372Y-9278984D01*
X11896372Y-9278984D02*
X11877324Y-9269460D01*
X11877324Y-9269460D02*
X11867801Y-9259936D01*
X11867801Y-9259936D02*
X11858277Y-9240889D01*
X11858277Y-9240889D02*
X11848753Y-9202793D01*
X11848753Y-9202793D02*
X11848753Y-9155174D01*
X11848753Y-9155174D02*
X11858277Y-9117079D01*
X11858277Y-9117079D02*
X11867801Y-9098031D01*
X11867801Y-9098031D02*
X11877324Y-9088508D01*
X11877324Y-9088508D02*
X11896372Y-9078984D01*
X12048753Y-9259936D02*
X12058277Y-9269460D01*
X12058277Y-9269460D02*
X12048753Y-9278984D01*
X12048753Y-9278984D02*
X12039229Y-9269460D01*
X12039229Y-9269460D02*
X12048753Y-9259936D01*
X12048753Y-9259936D02*
X12048753Y-9278984D01*
X12124943Y-9078984D02*
X12248753Y-9078984D01*
X12248753Y-9078984D02*
X12182086Y-9155174D01*
X12182086Y-9155174D02*
X12210658Y-9155174D01*
X12210658Y-9155174D02*
X12229705Y-9164698D01*
X12229705Y-9164698D02*
X12239229Y-9174222D01*
X12239229Y-9174222D02*
X12248753Y-9193270D01*
X12248753Y-9193270D02*
X12248753Y-9240889D01*
X12248753Y-9240889D02*
X12239229Y-9259936D01*
X12239229Y-9259936D02*
X12229705Y-9269460D01*
X12229705Y-9269460D02*
X12210658Y-9278984D01*
X12210658Y-9278984D02*
X12153515Y-9278984D01*
X12153515Y-9278984D02*
X12134467Y-9269460D01*
X12134467Y-9269460D02*
X12124943Y-9259936D01*
X12372562Y-9078984D02*
X12391610Y-9078984D01*
X12391610Y-9078984D02*
X12410658Y-9088508D01*
X12410658Y-9088508D02*
X12420182Y-9098031D01*
X12420182Y-9098031D02*
X12429705Y-9117079D01*
X12429705Y-9117079D02*
X12439229Y-9155174D01*
X12439229Y-9155174D02*
X12439229Y-9202793D01*
X12439229Y-9202793D02*
X12429705Y-9240889D01*
X12429705Y-9240889D02*
X12420182Y-9259936D01*
X12420182Y-9259936D02*
X12410658Y-9269460D01*
X12410658Y-9269460D02*
X12391610Y-9278984D01*
X12391610Y-9278984D02*
X12372562Y-9278984D01*
X12372562Y-9278984D02*
X12353515Y-9269460D01*
X12353515Y-9269460D02*
X12343991Y-9259936D01*
X12343991Y-9259936D02*
X12334467Y-9240889D01*
X12334467Y-9240889D02*
X12324943Y-9202793D01*
X12324943Y-9202793D02*
X12324943Y-9155174D01*
X12324943Y-9155174D02*
X12334467Y-9117079D01*
X12334467Y-9117079D02*
X12343991Y-9098031D01*
X12343991Y-9098031D02*
X12353515Y-9088508D01*
X12353515Y-9088508D02*
X12372562Y-9078984D01*
X12563039Y-9078984D02*
X12582086Y-9078984D01*
X12582086Y-9078984D02*
X12601134Y-9088508D01*
X12601134Y-9088508D02*
X12610658Y-9098031D01*
X12610658Y-9098031D02*
X12620182Y-9117079D01*
X12620182Y-9117079D02*
X12629705Y-9155174D01*
X12629705Y-9155174D02*
X12629705Y-9202793D01*
X12629705Y-9202793D02*
X12620182Y-9240889D01*
X12620182Y-9240889D02*
X12610658Y-9259936D01*
X12610658Y-9259936D02*
X12601134Y-9269460D01*
X12601134Y-9269460D02*
X12582086Y-9278984D01*
X12582086Y-9278984D02*
X12563039Y-9278984D01*
X12563039Y-9278984D02*
X12543991Y-9269460D01*
X12543991Y-9269460D02*
X12534467Y-9259936D01*
X12534467Y-9259936D02*
X12524943Y-9240889D01*
X12524943Y-9240889D02*
X12515420Y-9202793D01*
X12515420Y-9202793D02*
X12515420Y-9155174D01*
X12515420Y-9155174D02*
X12524943Y-9117079D01*
X12524943Y-9117079D02*
X12534467Y-9098031D01*
X12534467Y-9098031D02*
X12543991Y-9088508D01*
X12543991Y-9088508D02*
X12563039Y-9078984D01*
X12715420Y-9278984D02*
X12715420Y-9145650D01*
X12715420Y-9164698D02*
X12724943Y-9155174D01*
X12724943Y-9155174D02*
X12743991Y-9145650D01*
X12743991Y-9145650D02*
X12772563Y-9145650D01*
X12772563Y-9145650D02*
X12791610Y-9155174D01*
X12791610Y-9155174D02*
X12801134Y-9174222D01*
X12801134Y-9174222D02*
X12801134Y-9278984D01*
X12801134Y-9174222D02*
X12810658Y-9155174D01*
X12810658Y-9155174D02*
X12829705Y-9145650D01*
X12829705Y-9145650D02*
X12858277Y-9145650D01*
X12858277Y-9145650D02*
X12877324Y-9155174D01*
X12877324Y-9155174D02*
X12886848Y-9174222D01*
X12886848Y-9174222D02*
X12886848Y-9278984D01*
X12982086Y-9278984D02*
X12982086Y-9145650D01*
X12982086Y-9164698D02*
X12991610Y-9155174D01*
X12991610Y-9155174D02*
X13010658Y-9145650D01*
X13010658Y-9145650D02*
X13039229Y-9145650D01*
X13039229Y-9145650D02*
X13058277Y-9155174D01*
X13058277Y-9155174D02*
X13067801Y-9174222D01*
X13067801Y-9174222D02*
X13067801Y-9278984D01*
X13067801Y-9174222D02*
X13077324Y-9155174D01*
X13077324Y-9155174D02*
X13096372Y-9145650D01*
X13096372Y-9145650D02*
X13124943Y-9145650D01*
X13124943Y-9145650D02*
X13143991Y-9155174D01*
X13143991Y-9155174D02*
X13153515Y-9174222D01*
X13153515Y-9174222D02*
X13153515Y-9278984D01*
X13543991Y-9069460D02*
X13372563Y-9326603D01*
X13801134Y-9078984D02*
X13820182Y-9078984D01*
X13820182Y-9078984D02*
X13839229Y-9088508D01*
X13839229Y-9088508D02*
X13848753Y-9098031D01*
X13848753Y-9098031D02*
X13858277Y-9117079D01*
X13858277Y-9117079D02*
X13867801Y-9155174D01*
X13867801Y-9155174D02*
X13867801Y-9202793D01*
X13867801Y-9202793D02*
X13858277Y-9240889D01*
X13858277Y-9240889D02*
X13848753Y-9259936D01*
X13848753Y-9259936D02*
X13839229Y-9269460D01*
X13839229Y-9269460D02*
X13820182Y-9278984D01*
X13820182Y-9278984D02*
X13801134Y-9278984D01*
X13801134Y-9278984D02*
X13782086Y-9269460D01*
X13782086Y-9269460D02*
X13772563Y-9259936D01*
X13772563Y-9259936D02*
X13763039Y-9240889D01*
X13763039Y-9240889D02*
X13753515Y-9202793D01*
X13753515Y-9202793D02*
X13753515Y-9155174D01*
X13753515Y-9155174D02*
X13763039Y-9117079D01*
X13763039Y-9117079D02*
X13772563Y-9098031D01*
X13772563Y-9098031D02*
X13782086Y-9088508D01*
X13782086Y-9088508D02*
X13801134Y-9078984D01*
X13953515Y-9259936D02*
X13963039Y-9269460D01*
X13963039Y-9269460D02*
X13953515Y-9278984D01*
X13953515Y-9278984D02*
X13943991Y-9269460D01*
X13943991Y-9269460D02*
X13953515Y-9259936D01*
X13953515Y-9259936D02*
X13953515Y-9278984D01*
X14086848Y-9078984D02*
X14105896Y-9078984D01*
X14105896Y-9078984D02*
X14124944Y-9088508D01*
X14124944Y-9088508D02*
X14134467Y-9098031D01*
X14134467Y-9098031D02*
X14143991Y-9117079D01*
X14143991Y-9117079D02*
X14153515Y-9155174D01*
X14153515Y-9155174D02*
X14153515Y-9202793D01*
X14153515Y-9202793D02*
X14143991Y-9240889D01*
X14143991Y-9240889D02*
X14134467Y-9259936D01*
X14134467Y-9259936D02*
X14124944Y-9269460D01*
X14124944Y-9269460D02*
X14105896Y-9278984D01*
X14105896Y-9278984D02*
X14086848Y-9278984D01*
X14086848Y-9278984D02*
X14067801Y-9269460D01*
X14067801Y-9269460D02*
X14058277Y-9259936D01*
X14058277Y-9259936D02*
X14048753Y-9240889D01*
X14048753Y-9240889D02*
X14039229Y-9202793D01*
X14039229Y-9202793D02*
X14039229Y-9155174D01*
X14039229Y-9155174D02*
X14048753Y-9117079D01*
X14048753Y-9117079D02*
X14058277Y-9098031D01*
X14058277Y-9098031D02*
X14067801Y-9088508D01*
X14067801Y-9088508D02*
X14086848Y-9078984D01*
X14343991Y-9278984D02*
X14229706Y-9278984D01*
X14286848Y-9278984D02*
X14286848Y-9078984D01*
X14286848Y-9078984D02*
X14267801Y-9107555D01*
X14267801Y-9107555D02*
X14248753Y-9126603D01*
X14248753Y-9126603D02*
X14229706Y-9136127D01*
X14534467Y-9278984D02*
X14420182Y-9278984D01*
X14477325Y-9278984D02*
X14477325Y-9078984D01*
X14477325Y-9078984D02*
X14458277Y-9107555D01*
X14458277Y-9107555D02*
X14439229Y-9126603D01*
X14439229Y-9126603D02*
X14420182Y-9136127D01*
X14648753Y-9164698D02*
X14629706Y-9155174D01*
X14629706Y-9155174D02*
X14620182Y-9145650D01*
X14620182Y-9145650D02*
X14610658Y-9126603D01*
X14610658Y-9126603D02*
X14610658Y-9117079D01*
X14610658Y-9117079D02*
X14620182Y-9098031D01*
X14620182Y-9098031D02*
X14629706Y-9088508D01*
X14629706Y-9088508D02*
X14648753Y-9078984D01*
X14648753Y-9078984D02*
X14686848Y-9078984D01*
X14686848Y-9078984D02*
X14705896Y-9088508D01*
X14705896Y-9088508D02*
X14715420Y-9098031D01*
X14715420Y-9098031D02*
X14724944Y-9117079D01*
X14724944Y-9117079D02*
X14724944Y-9126603D01*
X14724944Y-9126603D02*
X14715420Y-9145650D01*
X14715420Y-9145650D02*
X14705896Y-9155174D01*
X14705896Y-9155174D02*
X14686848Y-9164698D01*
X14686848Y-9164698D02*
X14648753Y-9164698D01*
X14648753Y-9164698D02*
X14629706Y-9174222D01*
X14629706Y-9174222D02*
X14620182Y-9183746D01*
X14620182Y-9183746D02*
X14610658Y-9202793D01*
X14610658Y-9202793D02*
X14610658Y-9240889D01*
X14610658Y-9240889D02*
X14620182Y-9259936D01*
X14620182Y-9259936D02*
X14629706Y-9269460D01*
X14629706Y-9269460D02*
X14648753Y-9278984D01*
X14648753Y-9278984D02*
X14686848Y-9278984D01*
X14686848Y-9278984D02*
X14705896Y-9269460D01*
X14705896Y-9269460D02*
X14715420Y-9259936D01*
X14715420Y-9259936D02*
X14724944Y-9240889D01*
X14724944Y-9240889D02*
X14724944Y-9202793D01*
X14724944Y-9202793D02*
X14715420Y-9183746D01*
X14715420Y-9183746D02*
X14705896Y-9174222D01*
X14705896Y-9174222D02*
X14686848Y-9164698D01*
X14801134Y-9078984D02*
X14801134Y-9117079D01*
X14877325Y-9078984D02*
X14877325Y-9117079D01*
X15172563Y-9355174D02*
X15163039Y-9345650D01*
X15163039Y-9345650D02*
X15143991Y-9317079D01*
X15143991Y-9317079D02*
X15134468Y-9298031D01*
X15134468Y-9298031D02*
X15124944Y-9269460D01*
X15124944Y-9269460D02*
X15115420Y-9221841D01*
X15115420Y-9221841D02*
X15115420Y-9183746D01*
X15115420Y-9183746D02*
X15124944Y-9136127D01*
X15124944Y-9136127D02*
X15134468Y-9107555D01*
X15134468Y-9107555D02*
X15143991Y-9088508D01*
X15143991Y-9088508D02*
X15163039Y-9059936D01*
X15163039Y-9059936D02*
X15172563Y-9050412D01*
X15353515Y-9278984D02*
X15239229Y-9278984D01*
X15296372Y-9278984D02*
X15296372Y-9078984D01*
X15296372Y-9078984D02*
X15277325Y-9107555D01*
X15277325Y-9107555D02*
X15258277Y-9126603D01*
X15258277Y-9126603D02*
X15239229Y-9136127D01*
X15477325Y-9078984D02*
X15496372Y-9078984D01*
X15496372Y-9078984D02*
X15515420Y-9088508D01*
X15515420Y-9088508D02*
X15524944Y-9098031D01*
X15524944Y-9098031D02*
X15534468Y-9117079D01*
X15534468Y-9117079D02*
X15543991Y-9155174D01*
X15543991Y-9155174D02*
X15543991Y-9202793D01*
X15543991Y-9202793D02*
X15534468Y-9240889D01*
X15534468Y-9240889D02*
X15524944Y-9259936D01*
X15524944Y-9259936D02*
X15515420Y-9269460D01*
X15515420Y-9269460D02*
X15496372Y-9278984D01*
X15496372Y-9278984D02*
X15477325Y-9278984D01*
X15477325Y-9278984D02*
X15458277Y-9269460D01*
X15458277Y-9269460D02*
X15448753Y-9259936D01*
X15448753Y-9259936D02*
X15439229Y-9240889D01*
X15439229Y-9240889D02*
X15429706Y-9202793D01*
X15429706Y-9202793D02*
X15429706Y-9155174D01*
X15429706Y-9155174D02*
X15439229Y-9117079D01*
X15439229Y-9117079D02*
X15448753Y-9098031D01*
X15448753Y-9098031D02*
X15458277Y-9088508D01*
X15458277Y-9088508D02*
X15477325Y-9078984D01*
X15782087Y-9278984D02*
X15782087Y-9078984D01*
X15867801Y-9278984D02*
X15867801Y-9174222D01*
X15867801Y-9174222D02*
X15858277Y-9155174D01*
X15858277Y-9155174D02*
X15839230Y-9145650D01*
X15839230Y-9145650D02*
X15810658Y-9145650D01*
X15810658Y-9145650D02*
X15791610Y-9155174D01*
X15791610Y-9155174D02*
X15782087Y-9164698D01*
X15991610Y-9278984D02*
X15972563Y-9269460D01*
X15972563Y-9269460D02*
X15963039Y-9259936D01*
X15963039Y-9259936D02*
X15953515Y-9240889D01*
X15953515Y-9240889D02*
X15953515Y-9183746D01*
X15953515Y-9183746D02*
X15963039Y-9164698D01*
X15963039Y-9164698D02*
X15972563Y-9155174D01*
X15972563Y-9155174D02*
X15991610Y-9145650D01*
X15991610Y-9145650D02*
X16020182Y-9145650D01*
X16020182Y-9145650D02*
X16039230Y-9155174D01*
X16039230Y-9155174D02*
X16048753Y-9164698D01*
X16048753Y-9164698D02*
X16058277Y-9183746D01*
X16058277Y-9183746D02*
X16058277Y-9240889D01*
X16058277Y-9240889D02*
X16048753Y-9259936D01*
X16048753Y-9259936D02*
X16039230Y-9269460D01*
X16039230Y-9269460D02*
X16020182Y-9278984D01*
X16020182Y-9278984D02*
X15991610Y-9278984D01*
X16172563Y-9278984D02*
X16153515Y-9269460D01*
X16153515Y-9269460D02*
X16143991Y-9250412D01*
X16143991Y-9250412D02*
X16143991Y-9078984D01*
X16324944Y-9269460D02*
X16305896Y-9278984D01*
X16305896Y-9278984D02*
X16267801Y-9278984D01*
X16267801Y-9278984D02*
X16248753Y-9269460D01*
X16248753Y-9269460D02*
X16239230Y-9250412D01*
X16239230Y-9250412D02*
X16239230Y-9174222D01*
X16239230Y-9174222D02*
X16248753Y-9155174D01*
X16248753Y-9155174D02*
X16267801Y-9145650D01*
X16267801Y-9145650D02*
X16305896Y-9145650D01*
X16305896Y-9145650D02*
X16324944Y-9155174D01*
X16324944Y-9155174D02*
X16334468Y-9174222D01*
X16334468Y-9174222D02*
X16334468Y-9193270D01*
X16334468Y-9193270D02*
X16239230Y-9212317D01*
X16410658Y-9269460D02*
X16429706Y-9278984D01*
X16429706Y-9278984D02*
X16467801Y-9278984D01*
X16467801Y-9278984D02*
X16486849Y-9269460D01*
X16486849Y-9269460D02*
X16496372Y-9250412D01*
X16496372Y-9250412D02*
X16496372Y-9240889D01*
X16496372Y-9240889D02*
X16486849Y-9221841D01*
X16486849Y-9221841D02*
X16467801Y-9212317D01*
X16467801Y-9212317D02*
X16439230Y-9212317D01*
X16439230Y-9212317D02*
X16420182Y-9202793D01*
X16420182Y-9202793D02*
X16410658Y-9183746D01*
X16410658Y-9183746D02*
X16410658Y-9174222D01*
X16410658Y-9174222D02*
X16420182Y-9155174D01*
X16420182Y-9155174D02*
X16439230Y-9145650D01*
X16439230Y-9145650D02*
X16467801Y-9145650D01*
X16467801Y-9145650D02*
X16486849Y-9155174D01*
X16563039Y-9355174D02*
X16572563Y-9345650D01*
X16572563Y-9345650D02*
X16591611Y-9317079D01*
X16591611Y-9317079D02*
X16601134Y-9298031D01*
X16601134Y-9298031D02*
X16610658Y-9269460D01*
X16610658Y-9269460D02*
X16620182Y-9221841D01*
X16620182Y-9221841D02*
X16620182Y-9183746D01*
X16620182Y-9183746D02*
X16610658Y-9136127D01*
X16610658Y-9136127D02*
X16601134Y-9107555D01*
X16601134Y-9107555D02*
X16591611Y-9088508D01*
X16591611Y-9088508D02*
X16572563Y-9059936D01*
X16572563Y-9059936D02*
X16563039Y-9050412D01*
D12*
X11597500Y-9451500D02*
G75*
G02*
X11517500Y-9451500I-40000J0D01*
G01*
X11517500Y-9451500D02*
G75*
G02*
X11597500Y-9451500I40000J0D01*
G01*
D11*
X11896372Y-9342984D02*
X11915420Y-9342984D01*
X11915420Y-9342984D02*
X11934467Y-9352508D01*
X11934467Y-9352508D02*
X11943991Y-9362031D01*
X11943991Y-9362031D02*
X11953515Y-9381079D01*
X11953515Y-9381079D02*
X11963039Y-9419174D01*
X11963039Y-9419174D02*
X11963039Y-9466793D01*
X11963039Y-9466793D02*
X11953515Y-9504889D01*
X11953515Y-9504889D02*
X11943991Y-9523936D01*
X11943991Y-9523936D02*
X11934467Y-9533460D01*
X11934467Y-9533460D02*
X11915420Y-9542984D01*
X11915420Y-9542984D02*
X11896372Y-9542984D01*
X11896372Y-9542984D02*
X11877324Y-9533460D01*
X11877324Y-9533460D02*
X11867801Y-9523936D01*
X11867801Y-9523936D02*
X11858277Y-9504889D01*
X11858277Y-9504889D02*
X11848753Y-9466793D01*
X11848753Y-9466793D02*
X11848753Y-9419174D01*
X11848753Y-9419174D02*
X11858277Y-9381079D01*
X11858277Y-9381079D02*
X11867801Y-9362031D01*
X11867801Y-9362031D02*
X11877324Y-9352508D01*
X11877324Y-9352508D02*
X11896372Y-9342984D01*
X12048753Y-9523936D02*
X12058277Y-9533460D01*
X12058277Y-9533460D02*
X12048753Y-9542984D01*
X12048753Y-9542984D02*
X12039229Y-9533460D01*
X12039229Y-9533460D02*
X12048753Y-9523936D01*
X12048753Y-9523936D02*
X12048753Y-9542984D01*
X12172562Y-9428698D02*
X12153515Y-9419174D01*
X12153515Y-9419174D02*
X12143991Y-9409650D01*
X12143991Y-9409650D02*
X12134467Y-9390603D01*
X12134467Y-9390603D02*
X12134467Y-9381079D01*
X12134467Y-9381079D02*
X12143991Y-9362031D01*
X12143991Y-9362031D02*
X12153515Y-9352508D01*
X12153515Y-9352508D02*
X12172562Y-9342984D01*
X12172562Y-9342984D02*
X12210658Y-9342984D01*
X12210658Y-9342984D02*
X12229705Y-9352508D01*
X12229705Y-9352508D02*
X12239229Y-9362031D01*
X12239229Y-9362031D02*
X12248753Y-9381079D01*
X12248753Y-9381079D02*
X12248753Y-9390603D01*
X12248753Y-9390603D02*
X12239229Y-9409650D01*
X12239229Y-9409650D02*
X12229705Y-9419174D01*
X12229705Y-9419174D02*
X12210658Y-9428698D01*
X12210658Y-9428698D02*
X12172562Y-9428698D01*
X12172562Y-9428698D02*
X12153515Y-9438222D01*
X12153515Y-9438222D02*
X12143991Y-9447746D01*
X12143991Y-9447746D02*
X12134467Y-9466793D01*
X12134467Y-9466793D02*
X12134467Y-9504889D01*
X12134467Y-9504889D02*
X12143991Y-9523936D01*
X12143991Y-9523936D02*
X12153515Y-9533460D01*
X12153515Y-9533460D02*
X12172562Y-9542984D01*
X12172562Y-9542984D02*
X12210658Y-9542984D01*
X12210658Y-9542984D02*
X12229705Y-9533460D01*
X12229705Y-9533460D02*
X12239229Y-9523936D01*
X12239229Y-9523936D02*
X12248753Y-9504889D01*
X12248753Y-9504889D02*
X12248753Y-9466793D01*
X12248753Y-9466793D02*
X12239229Y-9447746D01*
X12239229Y-9447746D02*
X12229705Y-9438222D01*
X12229705Y-9438222D02*
X12210658Y-9428698D01*
X12372562Y-9342984D02*
X12391610Y-9342984D01*
X12391610Y-9342984D02*
X12410658Y-9352508D01*
X12410658Y-9352508D02*
X12420182Y-9362031D01*
X12420182Y-9362031D02*
X12429705Y-9381079D01*
X12429705Y-9381079D02*
X12439229Y-9419174D01*
X12439229Y-9419174D02*
X12439229Y-9466793D01*
X12439229Y-9466793D02*
X12429705Y-9504889D01*
X12429705Y-9504889D02*
X12420182Y-9523936D01*
X12420182Y-9523936D02*
X12410658Y-9533460D01*
X12410658Y-9533460D02*
X12391610Y-9542984D01*
X12391610Y-9542984D02*
X12372562Y-9542984D01*
X12372562Y-9542984D02*
X12353515Y-9533460D01*
X12353515Y-9533460D02*
X12343991Y-9523936D01*
X12343991Y-9523936D02*
X12334467Y-9504889D01*
X12334467Y-9504889D02*
X12324943Y-9466793D01*
X12324943Y-9466793D02*
X12324943Y-9419174D01*
X12324943Y-9419174D02*
X12334467Y-9381079D01*
X12334467Y-9381079D02*
X12343991Y-9362031D01*
X12343991Y-9362031D02*
X12353515Y-9352508D01*
X12353515Y-9352508D02*
X12372562Y-9342984D01*
X12563039Y-9342984D02*
X12582086Y-9342984D01*
X12582086Y-9342984D02*
X12601134Y-9352508D01*
X12601134Y-9352508D02*
X12610658Y-9362031D01*
X12610658Y-9362031D02*
X12620182Y-9381079D01*
X12620182Y-9381079D02*
X12629705Y-9419174D01*
X12629705Y-9419174D02*
X12629705Y-9466793D01*
X12629705Y-9466793D02*
X12620182Y-9504889D01*
X12620182Y-9504889D02*
X12610658Y-9523936D01*
X12610658Y-9523936D02*
X12601134Y-9533460D01*
X12601134Y-9533460D02*
X12582086Y-9542984D01*
X12582086Y-9542984D02*
X12563039Y-9542984D01*
X12563039Y-9542984D02*
X12543991Y-9533460D01*
X12543991Y-9533460D02*
X12534467Y-9523936D01*
X12534467Y-9523936D02*
X12524943Y-9504889D01*
X12524943Y-9504889D02*
X12515420Y-9466793D01*
X12515420Y-9466793D02*
X12515420Y-9419174D01*
X12515420Y-9419174D02*
X12524943Y-9381079D01*
X12524943Y-9381079D02*
X12534467Y-9362031D01*
X12534467Y-9362031D02*
X12543991Y-9352508D01*
X12543991Y-9352508D02*
X12563039Y-9342984D01*
X12715420Y-9542984D02*
X12715420Y-9409650D01*
X12715420Y-9428698D02*
X12724943Y-9419174D01*
X12724943Y-9419174D02*
X12743991Y-9409650D01*
X12743991Y-9409650D02*
X12772563Y-9409650D01*
X12772563Y-9409650D02*
X12791610Y-9419174D01*
X12791610Y-9419174D02*
X12801134Y-9438222D01*
X12801134Y-9438222D02*
X12801134Y-9542984D01*
X12801134Y-9438222D02*
X12810658Y-9419174D01*
X12810658Y-9419174D02*
X12829705Y-9409650D01*
X12829705Y-9409650D02*
X12858277Y-9409650D01*
X12858277Y-9409650D02*
X12877324Y-9419174D01*
X12877324Y-9419174D02*
X12886848Y-9438222D01*
X12886848Y-9438222D02*
X12886848Y-9542984D01*
X12982086Y-9542984D02*
X12982086Y-9409650D01*
X12982086Y-9428698D02*
X12991610Y-9419174D01*
X12991610Y-9419174D02*
X13010658Y-9409650D01*
X13010658Y-9409650D02*
X13039229Y-9409650D01*
X13039229Y-9409650D02*
X13058277Y-9419174D01*
X13058277Y-9419174D02*
X13067801Y-9438222D01*
X13067801Y-9438222D02*
X13067801Y-9542984D01*
X13067801Y-9438222D02*
X13077324Y-9419174D01*
X13077324Y-9419174D02*
X13096372Y-9409650D01*
X13096372Y-9409650D02*
X13124943Y-9409650D01*
X13124943Y-9409650D02*
X13143991Y-9419174D01*
X13143991Y-9419174D02*
X13153515Y-9438222D01*
X13153515Y-9438222D02*
X13153515Y-9542984D01*
X13543991Y-9333460D02*
X13372563Y-9590603D01*
X13801134Y-9342984D02*
X13820182Y-9342984D01*
X13820182Y-9342984D02*
X13839229Y-9352508D01*
X13839229Y-9352508D02*
X13848753Y-9362031D01*
X13848753Y-9362031D02*
X13858277Y-9381079D01*
X13858277Y-9381079D02*
X13867801Y-9419174D01*
X13867801Y-9419174D02*
X13867801Y-9466793D01*
X13867801Y-9466793D02*
X13858277Y-9504889D01*
X13858277Y-9504889D02*
X13848753Y-9523936D01*
X13848753Y-9523936D02*
X13839229Y-9533460D01*
X13839229Y-9533460D02*
X13820182Y-9542984D01*
X13820182Y-9542984D02*
X13801134Y-9542984D01*
X13801134Y-9542984D02*
X13782086Y-9533460D01*
X13782086Y-9533460D02*
X13772563Y-9523936D01*
X13772563Y-9523936D02*
X13763039Y-9504889D01*
X13763039Y-9504889D02*
X13753515Y-9466793D01*
X13753515Y-9466793D02*
X13753515Y-9419174D01*
X13753515Y-9419174D02*
X13763039Y-9381079D01*
X13763039Y-9381079D02*
X13772563Y-9362031D01*
X13772563Y-9362031D02*
X13782086Y-9352508D01*
X13782086Y-9352508D02*
X13801134Y-9342984D01*
X13953515Y-9523936D02*
X13963039Y-9533460D01*
X13963039Y-9533460D02*
X13953515Y-9542984D01*
X13953515Y-9542984D02*
X13943991Y-9533460D01*
X13943991Y-9533460D02*
X13953515Y-9523936D01*
X13953515Y-9523936D02*
X13953515Y-9542984D01*
X14086848Y-9342984D02*
X14105896Y-9342984D01*
X14105896Y-9342984D02*
X14124944Y-9352508D01*
X14124944Y-9352508D02*
X14134467Y-9362031D01*
X14134467Y-9362031D02*
X14143991Y-9381079D01*
X14143991Y-9381079D02*
X14153515Y-9419174D01*
X14153515Y-9419174D02*
X14153515Y-9466793D01*
X14153515Y-9466793D02*
X14143991Y-9504889D01*
X14143991Y-9504889D02*
X14134467Y-9523936D01*
X14134467Y-9523936D02*
X14124944Y-9533460D01*
X14124944Y-9533460D02*
X14105896Y-9542984D01*
X14105896Y-9542984D02*
X14086848Y-9542984D01*
X14086848Y-9542984D02*
X14067801Y-9533460D01*
X14067801Y-9533460D02*
X14058277Y-9523936D01*
X14058277Y-9523936D02*
X14048753Y-9504889D01*
X14048753Y-9504889D02*
X14039229Y-9466793D01*
X14039229Y-9466793D02*
X14039229Y-9419174D01*
X14039229Y-9419174D02*
X14048753Y-9381079D01*
X14048753Y-9381079D02*
X14058277Y-9362031D01*
X14058277Y-9362031D02*
X14067801Y-9352508D01*
X14067801Y-9352508D02*
X14086848Y-9342984D01*
X14220182Y-9342984D02*
X14343991Y-9342984D01*
X14343991Y-9342984D02*
X14277325Y-9419174D01*
X14277325Y-9419174D02*
X14305896Y-9419174D01*
X14305896Y-9419174D02*
X14324944Y-9428698D01*
X14324944Y-9428698D02*
X14334467Y-9438222D01*
X14334467Y-9438222D02*
X14343991Y-9457270D01*
X14343991Y-9457270D02*
X14343991Y-9504889D01*
X14343991Y-9504889D02*
X14334467Y-9523936D01*
X14334467Y-9523936D02*
X14324944Y-9533460D01*
X14324944Y-9533460D02*
X14305896Y-9542984D01*
X14305896Y-9542984D02*
X14248753Y-9542984D01*
X14248753Y-9542984D02*
X14229706Y-9533460D01*
X14229706Y-9533460D02*
X14220182Y-9523936D01*
X14534467Y-9542984D02*
X14420182Y-9542984D01*
X14477325Y-9542984D02*
X14477325Y-9342984D01*
X14477325Y-9342984D02*
X14458277Y-9371555D01*
X14458277Y-9371555D02*
X14439229Y-9390603D01*
X14439229Y-9390603D02*
X14420182Y-9400127D01*
X14715420Y-9342984D02*
X14620182Y-9342984D01*
X14620182Y-9342984D02*
X14610658Y-9438222D01*
X14610658Y-9438222D02*
X14620182Y-9428698D01*
X14620182Y-9428698D02*
X14639229Y-9419174D01*
X14639229Y-9419174D02*
X14686848Y-9419174D01*
X14686848Y-9419174D02*
X14705896Y-9428698D01*
X14705896Y-9428698D02*
X14715420Y-9438222D01*
X14715420Y-9438222D02*
X14724944Y-9457270D01*
X14724944Y-9457270D02*
X14724944Y-9504889D01*
X14724944Y-9504889D02*
X14715420Y-9523936D01*
X14715420Y-9523936D02*
X14705896Y-9533460D01*
X14705896Y-9533460D02*
X14686848Y-9542984D01*
X14686848Y-9542984D02*
X14639229Y-9542984D01*
X14639229Y-9542984D02*
X14620182Y-9533460D01*
X14620182Y-9533460D02*
X14610658Y-9523936D01*
X14801134Y-9342984D02*
X14801134Y-9381079D01*
X14877325Y-9342984D02*
X14877325Y-9381079D01*
X15172563Y-9619174D02*
X15163039Y-9609650D01*
X15163039Y-9609650D02*
X15143991Y-9581079D01*
X15143991Y-9581079D02*
X15134468Y-9562031D01*
X15134468Y-9562031D02*
X15124944Y-9533460D01*
X15124944Y-9533460D02*
X15115420Y-9485841D01*
X15115420Y-9485841D02*
X15115420Y-9447746D01*
X15115420Y-9447746D02*
X15124944Y-9400127D01*
X15124944Y-9400127D02*
X15134468Y-9371555D01*
X15134468Y-9371555D02*
X15143991Y-9352508D01*
X15143991Y-9352508D02*
X15163039Y-9323936D01*
X15163039Y-9323936D02*
X15172563Y-9314412D01*
X15277325Y-9428698D02*
X15258277Y-9419174D01*
X15258277Y-9419174D02*
X15248753Y-9409650D01*
X15248753Y-9409650D02*
X15239229Y-9390603D01*
X15239229Y-9390603D02*
X15239229Y-9381079D01*
X15239229Y-9381079D02*
X15248753Y-9362031D01*
X15248753Y-9362031D02*
X15258277Y-9352508D01*
X15258277Y-9352508D02*
X15277325Y-9342984D01*
X15277325Y-9342984D02*
X15315420Y-9342984D01*
X15315420Y-9342984D02*
X15334468Y-9352508D01*
X15334468Y-9352508D02*
X15343991Y-9362031D01*
X15343991Y-9362031D02*
X15353515Y-9381079D01*
X15353515Y-9381079D02*
X15353515Y-9390603D01*
X15353515Y-9390603D02*
X15343991Y-9409650D01*
X15343991Y-9409650D02*
X15334468Y-9419174D01*
X15334468Y-9419174D02*
X15315420Y-9428698D01*
X15315420Y-9428698D02*
X15277325Y-9428698D01*
X15277325Y-9428698D02*
X15258277Y-9438222D01*
X15258277Y-9438222D02*
X15248753Y-9447746D01*
X15248753Y-9447746D02*
X15239229Y-9466793D01*
X15239229Y-9466793D02*
X15239229Y-9504889D01*
X15239229Y-9504889D02*
X15248753Y-9523936D01*
X15248753Y-9523936D02*
X15258277Y-9533460D01*
X15258277Y-9533460D02*
X15277325Y-9542984D01*
X15277325Y-9542984D02*
X15315420Y-9542984D01*
X15315420Y-9542984D02*
X15334468Y-9533460D01*
X15334468Y-9533460D02*
X15343991Y-9523936D01*
X15343991Y-9523936D02*
X15353515Y-9504889D01*
X15353515Y-9504889D02*
X15353515Y-9466793D01*
X15353515Y-9466793D02*
X15343991Y-9447746D01*
X15343991Y-9447746D02*
X15334468Y-9438222D01*
X15334468Y-9438222D02*
X15315420Y-9428698D01*
X15591610Y-9542984D02*
X15591610Y-9342984D01*
X15677325Y-9542984D02*
X15677325Y-9438222D01*
X15677325Y-9438222D02*
X15667801Y-9419174D01*
X15667801Y-9419174D02*
X15648753Y-9409650D01*
X15648753Y-9409650D02*
X15620182Y-9409650D01*
X15620182Y-9409650D02*
X15601134Y-9419174D01*
X15601134Y-9419174D02*
X15591610Y-9428698D01*
X15801134Y-9542984D02*
X15782087Y-9533460D01*
X15782087Y-9533460D02*
X15772563Y-9523936D01*
X15772563Y-9523936D02*
X15763039Y-9504889D01*
X15763039Y-9504889D02*
X15763039Y-9447746D01*
X15763039Y-9447746D02*
X15772563Y-9428698D01*
X15772563Y-9428698D02*
X15782087Y-9419174D01*
X15782087Y-9419174D02*
X15801134Y-9409650D01*
X15801134Y-9409650D02*
X15829706Y-9409650D01*
X15829706Y-9409650D02*
X15848753Y-9419174D01*
X15848753Y-9419174D02*
X15858277Y-9428698D01*
X15858277Y-9428698D02*
X15867801Y-9447746D01*
X15867801Y-9447746D02*
X15867801Y-9504889D01*
X15867801Y-9504889D02*
X15858277Y-9523936D01*
X15858277Y-9523936D02*
X15848753Y-9533460D01*
X15848753Y-9533460D02*
X15829706Y-9542984D01*
X15829706Y-9542984D02*
X15801134Y-9542984D01*
X15982087Y-9542984D02*
X15963039Y-9533460D01*
X15963039Y-9533460D02*
X15953515Y-9514412D01*
X15953515Y-9514412D02*
X15953515Y-9342984D01*
X16134468Y-9533460D02*
X16115420Y-9542984D01*
X16115420Y-9542984D02*
X16077325Y-9542984D01*
X16077325Y-9542984D02*
X16058277Y-9533460D01*
X16058277Y-9533460D02*
X16048753Y-9514412D01*
X16048753Y-9514412D02*
X16048753Y-9438222D01*
X16048753Y-9438222D02*
X16058277Y-9419174D01*
X16058277Y-9419174D02*
X16077325Y-9409650D01*
X16077325Y-9409650D02*
X16115420Y-9409650D01*
X16115420Y-9409650D02*
X16134468Y-9419174D01*
X16134468Y-9419174D02*
X16143991Y-9438222D01*
X16143991Y-9438222D02*
X16143991Y-9457270D01*
X16143991Y-9457270D02*
X16048753Y-9476317D01*
X16220182Y-9533460D02*
X16239230Y-9542984D01*
X16239230Y-9542984D02*
X16277325Y-9542984D01*
X16277325Y-9542984D02*
X16296372Y-9533460D01*
X16296372Y-9533460D02*
X16305896Y-9514412D01*
X16305896Y-9514412D02*
X16305896Y-9504889D01*
X16305896Y-9504889D02*
X16296372Y-9485841D01*
X16296372Y-9485841D02*
X16277325Y-9476317D01*
X16277325Y-9476317D02*
X16248753Y-9476317D01*
X16248753Y-9476317D02*
X16229706Y-9466793D01*
X16229706Y-9466793D02*
X16220182Y-9447746D01*
X16220182Y-9447746D02*
X16220182Y-9438222D01*
X16220182Y-9438222D02*
X16229706Y-9419174D01*
X16229706Y-9419174D02*
X16248753Y-9409650D01*
X16248753Y-9409650D02*
X16277325Y-9409650D01*
X16277325Y-9409650D02*
X16296372Y-9419174D01*
X16372563Y-9619174D02*
X16382087Y-9609650D01*
X16382087Y-9609650D02*
X16401134Y-9581079D01*
X16401134Y-9581079D02*
X16410658Y-9562031D01*
X16410658Y-9562031D02*
X16420182Y-9533460D01*
X16420182Y-9533460D02*
X16429706Y-9485841D01*
X16429706Y-9485841D02*
X16429706Y-9447746D01*
X16429706Y-9447746D02*
X16420182Y-9400127D01*
X16420182Y-9400127D02*
X16410658Y-9371555D01*
X16410658Y-9371555D02*
X16401134Y-9352508D01*
X16401134Y-9352508D02*
X16382087Y-9323936D01*
X16382087Y-9323936D02*
X16372563Y-9314412D01*
M02*
