%TF.GenerationSoftware,KiCad,Pcbnew,8.0.2*%
%TF.CreationDate,2024-05-28T21:33:25+01:00*%
%TF.ProjectId,RMC_USBCT,524d435f-5553-4424-9354-2e6b69636164,rev?*%
%TF.SameCoordinates,Original*%
%TF.FileFunction,Legend,Top*%
%TF.FilePolarity,Positive*%
%FSLAX46Y46*%
G04 Gerber Fmt 4.6, Leading zero omitted, Abs format (unit mm)*
G04 Created by KiCad (PCBNEW 8.0.2) date 2024-05-28 21:33:25*
%MOMM*%
%LPD*%
G01*
G04 APERTURE LIST*
G04 Aperture macros list*
%AMRoundRect*
0 Rectangle with rounded corners*
0 $1 Rounding radius*
0 $2 $3 $4 $5 $6 $7 $8 $9 X,Y pos of 4 corners*
0 Add a 4 corners polygon primitive as box body*
4,1,4,$2,$3,$4,$5,$6,$7,$8,$9,$2,$3,0*
0 Add four circle primitives for the rounded corners*
1,1,$1+$1,$2,$3*
1,1,$1+$1,$4,$5*
1,1,$1+$1,$6,$7*
1,1,$1+$1,$8,$9*
0 Add four rect primitives between the rounded corners*
20,1,$1+$1,$2,$3,$4,$5,0*
20,1,$1+$1,$4,$5,$6,$7,0*
20,1,$1+$1,$6,$7,$8,$9,0*
20,1,$1+$1,$8,$9,$2,$3,0*%
G04 Aperture macros list end*
%ADD10C,0.100000*%
%ADD11C,0.120000*%
%ADD12RoundRect,0.062500X-0.062500X-1.662500X0.062500X-1.662500X0.062500X1.662500X-0.062500X1.662500X0*%
%ADD13RoundRect,0.062500X0.062500X1.662500X-0.062500X1.662500X-0.062500X-1.662500X0.062500X-1.662500X0*%
%ADD14R,1.350000X1.350000*%
%ADD15O,1.350000X1.350000*%
%ADD16RoundRect,0.062500X-0.062500X-1.837500X0.062500X-1.837500X0.062500X1.837500X-0.062500X1.837500X0*%
%ADD17RoundRect,0.062500X0.062500X1.762500X-0.062500X1.762500X-0.062500X-1.762500X0.062500X-1.762500X0*%
G04 APERTURE END LIST*
D10*
X121666666Y-74957419D02*
X121666666Y-75671704D01*
X121666666Y-75671704D02*
X121619047Y-75814561D01*
X121619047Y-75814561D02*
X121523809Y-75909800D01*
X121523809Y-75909800D02*
X121380952Y-75957419D01*
X121380952Y-75957419D02*
X121285714Y-75957419D01*
X122666666Y-75957419D02*
X122095238Y-75957419D01*
X122380952Y-75957419D02*
X122380952Y-74957419D01*
X122380952Y-74957419D02*
X122285714Y-75100276D01*
X122285714Y-75100276D02*
X122190476Y-75195514D01*
X122190476Y-75195514D02*
X122095238Y-75243133D01*
D11*
%TO.C,J1*%
X115940000Y-76440000D02*
X117000000Y-76440000D01*
X115940000Y-77500000D02*
X115940000Y-76440000D01*
X115940000Y-78500000D02*
X118000000Y-78500000D01*
X115940000Y-80560000D02*
X115940000Y-78500000D01*
X115940000Y-80560000D02*
X128060000Y-80560000D01*
X118000000Y-76440000D02*
X128060000Y-76440000D01*
X118000000Y-78500000D02*
X118000000Y-76440000D01*
X128060000Y-80560000D02*
X128060000Y-76440000D01*
%TD*%
%LPC*%
%TO.C,J1*%
G36*
X118500000Y-81000000D02*
G01*
X125500000Y-81000000D01*
X125500000Y-85500000D01*
X118500000Y-85500000D01*
X118500000Y-81000000D01*
G37*
%TD*%
D12*
%TO.C,J1*%
X119750000Y-82725000D03*
D13*
X120250000Y-82725000D03*
D12*
X122750000Y-82725000D03*
X123750000Y-82725000D03*
X124250000Y-82725000D03*
D14*
X117000000Y-77500000D03*
D15*
X117000000Y-79500000D03*
D16*
X119250000Y-82900000D03*
X124750000Y-82900000D03*
D15*
X119000000Y-77500000D03*
D13*
X121750000Y-82725000D03*
D15*
X121000000Y-77500000D03*
D12*
X122250000Y-82725000D03*
D13*
X121250000Y-82725000D03*
D15*
X123000000Y-77500000D03*
X125000000Y-77500000D03*
D17*
X120750000Y-82825000D03*
X123250000Y-82825000D03*
D15*
X127000000Y-77500000D03*
X127000000Y-79500000D03*
%TD*%
%LPD*%
M02*
