%TF.GenerationSoftware,KiCad,Pcbnew,8.0.2*%
%TF.CreationDate,2024-05-28T21:16:18+01:00*%
%TF.ProjectId,RMC,524d432e-6b69-4636-9164-5f7063625858,rev?*%
%TF.SameCoordinates,Original*%
%TF.FileFunction,Soldermask,Top*%
%TF.FilePolarity,Negative*%
%FSLAX46Y46*%
G04 Gerber Fmt 4.6, Leading zero omitted, Abs format (unit mm)*
G04 Created by KiCad (PCBNEW 8.0.2) date 2024-05-28 21:16:18*
%MOMM*%
%LPD*%
G01*
G04 APERTURE LIST*
G04 Aperture macros list*
%AMRoundRect*
0 Rectangle with rounded corners*
0 $1 Rounding radius*
0 $2 $3 $4 $5 $6 $7 $8 $9 X,Y pos of 4 corners*
0 Add a 4 corners polygon primitive as box body*
4,1,4,$2,$3,$4,$5,$6,$7,$8,$9,$2,$3,0*
0 Add four circle primitives for the rounded corners*
1,1,$1+$1,$2,$3*
1,1,$1+$1,$4,$5*
1,1,$1+$1,$6,$7*
1,1,$1+$1,$8,$9*
0 Add four rect primitives between the rounded corners*
20,1,$1+$1,$2,$3,$4,$5,0*
20,1,$1+$1,$4,$5,$6,$7,0*
20,1,$1+$1,$6,$7,$8,$9,0*
20,1,$1+$1,$8,$9,$2,$3,0*%
%AMRotRect*
0 Rectangle, with rotation*
0 The origin of the aperture is its center*
0 $1 length*
0 $2 width*
0 $3 Rotation angle, in degrees counterclockwise*
0 Add horizontal line*
21,1,$1,$2,0,0,$3*%
G04 Aperture macros list end*
%ADD10RoundRect,0.225000X-0.250000X0.225000X-0.250000X-0.225000X0.250000X-0.225000X0.250000X0.225000X0*%
%ADD11O,1.700000X1.700000*%
%ADD12R,1.700000X1.700000*%
%ADD13RoundRect,0.200000X0.275000X-0.200000X0.275000X0.200000X-0.275000X0.200000X-0.275000X-0.200000X0*%
%ADD14R,0.350000X0.650000*%
%ADD15R,1.600000X1.000000*%
%ADD16RoundRect,0.140000X0.021213X-0.219203X0.219203X-0.021213X-0.021213X0.219203X-0.219203X0.021213X0*%
%ADD17R,1.350000X1.350000*%
%ADD18O,1.350000X1.350000*%
%ADD19RoundRect,0.200000X-0.275000X0.200000X-0.275000X-0.200000X0.275000X-0.200000X0.275000X0.200000X0*%
%ADD20RoundRect,0.225000X-0.017678X0.335876X-0.335876X0.017678X0.017678X-0.335876X0.335876X-0.017678X0*%
%ADD21RoundRect,0.225000X0.250000X-0.225000X0.250000X0.225000X-0.250000X0.225000X-0.250000X-0.225000X0*%
%ADD22RoundRect,0.225000X0.225000X0.250000X-0.225000X0.250000X-0.225000X-0.250000X0.225000X-0.250000X0*%
%ADD23RoundRect,0.200000X0.200000X0.275000X-0.200000X0.275000X-0.200000X-0.275000X0.200000X-0.275000X0*%
%ADD24RoundRect,0.140000X-0.140000X-0.170000X0.140000X-0.170000X0.140000X0.170000X-0.140000X0.170000X0*%
%ADD25RoundRect,0.100000X-0.100000X0.155000X-0.100000X-0.155000X0.100000X-0.155000X0.100000X0.155000X0*%
%ADD26RoundRect,0.200000X-0.200000X-0.275000X0.200000X-0.275000X0.200000X0.275000X-0.200000X0.275000X0*%
%ADD27RoundRect,0.225000X-0.335876X-0.017678X-0.017678X-0.335876X0.335876X0.017678X0.017678X0.335876X0*%
%ADD28RoundRect,0.140000X-0.021213X0.219203X-0.219203X0.021213X0.021213X-0.219203X0.219203X-0.021213X0*%
%ADD29C,1.300000*%
%ADD30RoundRect,0.200000X-0.053033X0.335876X-0.335876X0.053033X0.053033X-0.335876X0.335876X-0.053033X0*%
%ADD31RoundRect,0.050000X0.309359X-0.238649X-0.238649X0.309359X-0.309359X0.238649X0.238649X-0.309359X0*%
%ADD32RoundRect,0.050000X0.309359X0.238649X0.238649X0.309359X-0.309359X-0.238649X-0.238649X-0.309359X0*%
%ADD33RotRect,3.200000X3.200000X135.000000*%
%ADD34RoundRect,0.140000X0.140000X0.170000X-0.140000X0.170000X-0.140000X-0.170000X0.140000X-0.170000X0*%
%ADD35RoundRect,0.140000X0.219203X0.021213X0.021213X0.219203X-0.219203X-0.021213X-0.021213X-0.219203X0*%
%ADD36RoundRect,0.062500X-0.062500X0.350000X-0.062500X-0.350000X0.062500X-0.350000X0.062500X0.350000X0*%
%ADD37RoundRect,0.062500X-0.350000X0.062500X-0.350000X-0.062500X0.350000X-0.062500X0.350000X0.062500X0*%
%ADD38RoundRect,0.200000X0.335876X0.053033X0.053033X0.335876X-0.335876X-0.053033X-0.053033X-0.335876X0*%
%ADD39RoundRect,0.140000X-0.170000X0.140000X-0.170000X-0.140000X0.170000X-0.140000X0.170000X0.140000X0*%
%ADD40RoundRect,0.225000X-0.225000X-0.250000X0.225000X-0.250000X0.225000X0.250000X-0.225000X0.250000X0*%
%ADD41RoundRect,0.085000X0.265000X0.085000X-0.265000X0.085000X-0.265000X-0.085000X0.265000X-0.085000X0*%
%ADD42RoundRect,0.050000X-0.309359X0.238649X0.238649X-0.309359X0.309359X-0.238649X-0.238649X0.309359X0*%
%ADD43RoundRect,0.050000X-0.309359X-0.238649X-0.238649X-0.309359X0.309359X0.238649X0.238649X0.309359X0*%
%ADD44RotRect,5.600000X5.600000X315.000000*%
%ADD45C,0.400000*%
%ADD46R,1.200000X1.400000*%
%ADD47RoundRect,0.147500X-0.172500X0.147500X-0.172500X-0.147500X0.172500X-0.147500X0.172500X0.147500X0*%
%ADD48RoundRect,0.225000X0.017678X-0.335876X0.335876X-0.017678X-0.017678X0.335876X-0.335876X0.017678X0*%
%ADD49RoundRect,0.147500X0.147500X0.172500X-0.147500X0.172500X-0.147500X-0.172500X0.147500X-0.172500X0*%
%ADD50O,1.700000X3.700000*%
%ADD51R,0.530000X4.300000*%
%ADD52RoundRect,0.160000X-0.640000X-1.790000X0.640000X-1.790000X0.640000X1.790000X-0.640000X1.790000X0*%
%ADD53RoundRect,0.190000X-0.760000X-1.760000X0.760000X-1.760000X0.760000X1.760000X-0.760000X1.760000X0*%
%ADD54RoundRect,0.200000X-0.800000X-1.750000X0.800000X-1.750000X0.800000X1.750000X-0.800000X1.750000X0*%
%ADD55RoundRect,0.390000X-1.610000X-1.560000X1.610000X-1.560000X1.610000X1.560000X-1.610000X1.560000X0*%
G04 APERTURE END LIST*
%TO.C,J3*%
G36*
X100500000Y-100000000D02*
G01*
X111500000Y-100000000D01*
X111500000Y-105000000D01*
X100500000Y-105000000D01*
X100500000Y-100000000D01*
G37*
%TO.C,J9*%
G36*
X146500000Y-161200000D02*
G01*
X132800000Y-161200000D01*
X132800000Y-157000000D01*
X146500000Y-157000000D01*
X146500000Y-161200000D01*
G37*
%TD*%
D10*
%TO.C,J8*%
X164275000Y-161475000D03*
X164275000Y-159925000D03*
D11*
X163505000Y-190270000D03*
X163505000Y-187730000D03*
D10*
X166725000Y-161475000D03*
X166725000Y-159925000D03*
D11*
X166045000Y-190270000D03*
X166045000Y-187730000D03*
D10*
X169275000Y-161475000D03*
X169275000Y-159925000D03*
D11*
X168585000Y-190270000D03*
X168585000Y-187730000D03*
D10*
X171725000Y-161475000D03*
X171725000Y-159925000D03*
D11*
X171125000Y-190270000D03*
X171125000Y-187730000D03*
D10*
X174275000Y-161475000D03*
X174275000Y-159925000D03*
D11*
X173665000Y-190270000D03*
X173665000Y-187730000D03*
D10*
X176725000Y-161475000D03*
X176725000Y-159925000D03*
D11*
X176205000Y-190270000D03*
X176205000Y-187730000D03*
D10*
X179275000Y-161475000D03*
X179275000Y-159925000D03*
D11*
X178745000Y-190270000D03*
X178745000Y-187730000D03*
X181285000Y-190270000D03*
X181285000Y-187730000D03*
D10*
X180875000Y-161475000D03*
X180875000Y-159925000D03*
X161725000Y-159275000D03*
X161725000Y-157725000D03*
D12*
X160965000Y-190270000D03*
D11*
X160965000Y-187730000D03*
%TD*%
D13*
%TO.C,R14*%
X109500000Y-107825000D03*
X109500000Y-106175000D03*
%TD*%
%TO.C,R18*%
X107500000Y-111325000D03*
X107500000Y-109675000D03*
%TD*%
D14*
%TO.C,U4*%
X108850000Y-143050000D03*
X109500000Y-143050000D03*
X110150000Y-143050000D03*
X110150000Y-140950000D03*
X109500000Y-140950000D03*
X108850000Y-140950000D03*
D15*
X109500000Y-142000000D03*
%TD*%
D13*
%TO.C,R23*%
X104000000Y-107825000D03*
X104000000Y-106175000D03*
%TD*%
%TO.C,R28*%
X111500000Y-144325000D03*
X111500000Y-142675000D03*
%TD*%
D16*
%TO.C,C21*%
X135660589Y-121839411D03*
X136339411Y-121160589D03*
%TD*%
D17*
%TO.C,J6*%
X147500000Y-147000000D03*
D18*
X147500000Y-149000000D03*
X149500000Y-147000000D03*
X151500000Y-147000000D03*
X153500000Y-147000000D03*
X155500000Y-147000000D03*
X157500000Y-147000000D03*
X157500000Y-149000000D03*
%TD*%
D19*
%TO.C,R20*%
X183550000Y-116250000D03*
X183550000Y-117900000D03*
%TD*%
D10*
%TO.C,C38*%
X135000000Y-132225000D03*
X135000000Y-133775000D03*
%TD*%
D20*
%TO.C,C27*%
X130048008Y-111451992D03*
X128951992Y-112548008D03*
%TD*%
D21*
%TO.C,C48*%
X169275000Y-161475000D03*
X169275000Y-159925000D03*
%TD*%
D13*
%TO.C,R11*%
X158450000Y-108325000D03*
X158450000Y-106675000D03*
%TD*%
D21*
%TO.C,C50*%
X174275000Y-161475000D03*
X174275000Y-159925000D03*
%TD*%
D22*
%TO.C,C4*%
X114775000Y-117500000D03*
X113225000Y-117500000D03*
%TD*%
D21*
%TO.C,C53*%
X180875000Y-161475000D03*
X180875000Y-159925000D03*
%TD*%
D17*
%TO.C,J2*%
X130000000Y-108500000D03*
D18*
X130000000Y-106500000D03*
X128000000Y-108500000D03*
X126000000Y-108500000D03*
X124000000Y-108500000D03*
X122000000Y-108500000D03*
X120000000Y-108500000D03*
X120000000Y-106500000D03*
%TD*%
D23*
%TO.C,R2*%
X117825000Y-106000000D03*
X116175000Y-106000000D03*
%TD*%
D24*
%TO.C,C25*%
X140770000Y-108000000D03*
X141730000Y-108000000D03*
%TD*%
D25*
%TO.C,Q2*%
X152000000Y-140645000D03*
X153000000Y-140645000D03*
X152500000Y-139355000D03*
%TD*%
%TO.C,Q1*%
X105500000Y-140645000D03*
X106500000Y-140645000D03*
X106000000Y-139355000D03*
%TD*%
D22*
%TO.C,C2*%
X114775000Y-113000000D03*
X113225000Y-113000000D03*
%TD*%
D10*
%TO.C,C39*%
X133500000Y-132225000D03*
X133500000Y-133775000D03*
%TD*%
D26*
%TO.C,R21*%
X152175000Y-136500000D03*
X153825000Y-136500000D03*
%TD*%
D27*
%TO.C,C20*%
X130951992Y-112951992D03*
X132048008Y-114048008D03*
%TD*%
D24*
%TO.C,C26*%
X140770000Y-111000000D03*
X141730000Y-111000000D03*
%TD*%
D10*
%TO.C,C35*%
X137500000Y-136225000D03*
X137500000Y-137775000D03*
%TD*%
D22*
%TO.C,C3*%
X114775000Y-120500000D03*
X113225000Y-120500000D03*
%TD*%
D28*
%TO.C,C6*%
X110839411Y-134660589D03*
X110160589Y-135339411D03*
%TD*%
D21*
%TO.C,C47*%
X166725000Y-161475000D03*
X166725000Y-159925000D03*
%TD*%
D29*
%TO.C,H1*%
X113750000Y-106250000D03*
%TD*%
D24*
%TO.C,C12*%
X117770000Y-133250000D03*
X118730000Y-133250000D03*
%TD*%
D25*
%TO.C,Q3*%
X105500000Y-144645000D03*
X106500000Y-144645000D03*
X106000000Y-143355000D03*
%TD*%
D19*
%TO.C,R16*%
X158450000Y-116250000D03*
X158450000Y-117900000D03*
%TD*%
D21*
%TO.C,C52*%
X179275000Y-161475000D03*
X179275000Y-159925000D03*
%TD*%
D30*
%TO.C,R9*%
X134583363Y-114416637D03*
X133416637Y-115583363D03*
%TD*%
D24*
%TO.C,C5*%
X117520000Y-125500000D03*
X118480000Y-125500000D03*
%TD*%
D28*
%TO.C,C9*%
X107339411Y-131160589D03*
X106660589Y-131839411D03*
%TD*%
D21*
%TO.C,C49*%
X171725000Y-161475000D03*
X171725000Y-159925000D03*
%TD*%
%TO.C,C46*%
X164275000Y-161475000D03*
X164275000Y-159925000D03*
%TD*%
D31*
%TO.C,U2*%
X114092202Y-134769157D03*
X114375045Y-134486314D03*
X114657887Y-134203472D03*
X114940730Y-133920629D03*
X115223573Y-133637786D03*
X115506415Y-133354944D03*
X115789258Y-133072101D03*
X116072101Y-132789258D03*
X116354944Y-132506415D03*
X116637786Y-132223573D03*
X116920629Y-131940730D03*
X117203472Y-131657887D03*
X117486314Y-131375045D03*
X117769157Y-131092202D03*
D32*
X117769157Y-129907798D03*
X117486314Y-129624955D03*
X117203472Y-129342113D03*
X116920629Y-129059270D03*
X116637786Y-128776427D03*
X116354944Y-128493585D03*
X116072101Y-128210742D03*
X115789258Y-127927899D03*
X115506415Y-127645056D03*
X115223573Y-127362214D03*
X114940730Y-127079371D03*
X114657887Y-126796528D03*
X114375045Y-126513686D03*
X114092202Y-126230843D03*
D31*
X112907798Y-126230843D03*
X112624955Y-126513686D03*
X112342113Y-126796528D03*
X112059270Y-127079371D03*
X111776427Y-127362214D03*
X111493585Y-127645056D03*
X111210742Y-127927899D03*
X110927899Y-128210742D03*
X110645056Y-128493585D03*
X110362214Y-128776427D03*
X110079371Y-129059270D03*
X109796528Y-129342113D03*
X109513686Y-129624955D03*
X109230843Y-129907798D03*
D32*
X109230843Y-131092202D03*
X109513686Y-131375045D03*
X109796528Y-131657887D03*
X110079371Y-131940730D03*
X110362214Y-132223573D03*
X110645056Y-132506415D03*
X110927899Y-132789258D03*
X111210742Y-133072101D03*
X111493585Y-133354944D03*
X111776427Y-133637786D03*
X112059270Y-133920629D03*
X112342113Y-134203472D03*
X112624955Y-134486314D03*
X112907798Y-134769157D03*
D33*
X113500000Y-130500000D03*
%TD*%
D12*
%TO.C,J7*%
X133425000Y-110775000D03*
D11*
X133425000Y-108235000D03*
X135965000Y-110775000D03*
X135965000Y-108235000D03*
%TD*%
D24*
%TO.C,C13*%
X117520000Y-126500000D03*
X118480000Y-126500000D03*
%TD*%
D29*
%TO.C,H2*%
X183750000Y-102000000D03*
%TD*%
D22*
%TO.C,C31*%
X109775000Y-144500000D03*
X108225000Y-144500000D03*
%TD*%
D19*
%TO.C,R35*%
X136500000Y-129175000D03*
X136500000Y-130825000D03*
%TD*%
D26*
%TO.C,R4*%
X113175000Y-122000000D03*
X114825000Y-122000000D03*
%TD*%
D13*
%TO.C,R19*%
X106000000Y-111325000D03*
X106000000Y-109675000D03*
%TD*%
D34*
%TO.C,C22*%
X147980000Y-115500000D03*
X147020000Y-115500000D03*
%TD*%
D26*
%TO.C,R6*%
X104675000Y-136500000D03*
X106325000Y-136500000D03*
%TD*%
D13*
%TO.C,R29*%
X158000000Y-141325000D03*
X158000000Y-139675000D03*
%TD*%
D17*
%TO.C,J5*%
X101000000Y-147000000D03*
D18*
X101000000Y-149000000D03*
X103000000Y-147000000D03*
X105000000Y-147000000D03*
X107000000Y-147000000D03*
X109000000Y-147000000D03*
X111000000Y-147000000D03*
X111000000Y-149000000D03*
%TD*%
D35*
%TO.C,C15*%
X107839411Y-129339411D03*
X107160589Y-128660589D03*
%TD*%
D21*
%TO.C,C30*%
X151500000Y-111775000D03*
X151500000Y-110225000D03*
%TD*%
D36*
%TO.C,U6*%
X135250000Y-135537500D03*
X134750000Y-135537500D03*
X134250000Y-135537500D03*
X133750000Y-135537500D03*
D37*
X133037500Y-136250000D03*
X133037500Y-136750000D03*
X133037500Y-137250000D03*
X133037500Y-137750000D03*
D36*
X133750000Y-138462500D03*
X134250000Y-138462500D03*
X134750000Y-138462500D03*
X135250000Y-138462500D03*
D37*
X135962500Y-137750000D03*
X135962500Y-137250000D03*
X135962500Y-136750000D03*
X135962500Y-136250000D03*
D12*
X134500000Y-137000000D03*
%TD*%
D10*
%TO.C,C29*%
X156500000Y-110225000D03*
X156500000Y-111775000D03*
%TD*%
D13*
%TO.C,R15*%
X183550000Y-108325000D03*
X183550000Y-106675000D03*
%TD*%
D19*
%TO.C,R5*%
X150000000Y-114675000D03*
X150000000Y-116325000D03*
%TD*%
D13*
%TO.C,R22*%
X105500000Y-107825000D03*
X105500000Y-106175000D03*
%TD*%
D10*
%TO.C,C43*%
X131500000Y-136725000D03*
X131500000Y-138275000D03*
%TD*%
D29*
%TO.C,H3*%
X183750000Y-152000000D03*
%TD*%
D19*
%TO.C,R37*%
X139000000Y-136175000D03*
X139000000Y-137825000D03*
%TD*%
D21*
%TO.C,C45*%
X161725000Y-159275000D03*
X161725000Y-157725000D03*
%TD*%
D13*
%TO.C,R30*%
X158000000Y-144325000D03*
X158000000Y-142675000D03*
%TD*%
D38*
%TO.C,R38*%
X130583363Y-115583363D03*
X129416637Y-114416637D03*
%TD*%
D10*
%TO.C,C41*%
X133500000Y-129225000D03*
X133500000Y-130775000D03*
%TD*%
D26*
%TO.C,R7*%
X103675000Y-135000000D03*
X105325000Y-135000000D03*
%TD*%
D13*
%TO.C,R13*%
X110000000Y-111325000D03*
X110000000Y-109675000D03*
%TD*%
D39*
%TO.C,C18*%
X138500000Y-110520000D03*
X138500000Y-111480000D03*
%TD*%
D25*
%TO.C,Q4*%
X152000000Y-144645000D03*
X153000000Y-144645000D03*
X152500000Y-143355000D03*
%TD*%
D16*
%TO.C,C16*%
X142160589Y-123339411D03*
X142839411Y-122660589D03*
%TD*%
D40*
%TO.C,C42*%
X132725000Y-140000000D03*
X134275000Y-140000000D03*
%TD*%
D12*
%TO.C,J10*%
X155275000Y-120525000D03*
D11*
X152735000Y-120525000D03*
X155275000Y-117985000D03*
X152735000Y-117985000D03*
X155275000Y-115445000D03*
X152735000Y-115445000D03*
%TD*%
D22*
%TO.C,C32*%
X156275000Y-144500000D03*
X154725000Y-144500000D03*
%TD*%
D14*
%TO.C,U5*%
X155350000Y-143050000D03*
X156000000Y-143050000D03*
X156650000Y-143050000D03*
X156650000Y-140950000D03*
X156000000Y-140950000D03*
X155350000Y-140950000D03*
D15*
X156000000Y-142000000D03*
%TD*%
D24*
%TO.C,C33*%
X109020000Y-139500000D03*
X109980000Y-139500000D03*
%TD*%
D12*
%TO.C,J1*%
X155275000Y-129525000D03*
D11*
X152735000Y-129525000D03*
X155275000Y-126985000D03*
X152735000Y-126985000D03*
X155275000Y-124445000D03*
X152735000Y-124445000D03*
%TD*%
D28*
%TO.C,C10*%
X109839411Y-133660589D03*
X109160589Y-134339411D03*
%TD*%
D13*
%TO.C,R27*%
X111500000Y-141325000D03*
X111500000Y-139675000D03*
%TD*%
D10*
%TO.C,C40*%
X132000000Y-132225000D03*
X132000000Y-133775000D03*
%TD*%
D23*
%TO.C,R1*%
X117825000Y-107500000D03*
X116175000Y-107500000D03*
%TD*%
D41*
%TO.C,U1*%
X114250000Y-116000000D03*
X114250000Y-115500000D03*
X114250000Y-115000000D03*
X112750000Y-115000000D03*
X112750000Y-115500000D03*
X112750000Y-116000000D03*
%TD*%
D21*
%TO.C,C51*%
X176725000Y-161475000D03*
X176725000Y-159925000D03*
%TD*%
D42*
%TO.C,U3*%
X140907798Y-113230843D03*
X140624955Y-113513686D03*
X140342113Y-113796528D03*
X140059270Y-114079371D03*
X139776427Y-114362214D03*
X139493585Y-114645056D03*
X139210742Y-114927899D03*
X138927899Y-115210742D03*
X138645056Y-115493585D03*
X138362214Y-115776427D03*
X138079371Y-116059270D03*
X137796528Y-116342113D03*
X137513686Y-116624955D03*
X137230843Y-116907798D03*
D43*
X137230843Y-118092202D03*
X137513686Y-118375045D03*
X137796528Y-118657887D03*
X138079371Y-118940730D03*
X138362214Y-119223573D03*
X138645056Y-119506415D03*
X138927899Y-119789258D03*
X139210742Y-120072101D03*
X139493585Y-120354944D03*
X139776427Y-120637786D03*
X140059270Y-120920629D03*
X140342113Y-121203472D03*
X140624955Y-121486314D03*
X140907798Y-121769157D03*
D42*
X142092202Y-121769157D03*
X142375045Y-121486314D03*
X142657887Y-121203472D03*
X142940730Y-120920629D03*
X143223573Y-120637786D03*
X143506415Y-120354944D03*
X143789258Y-120072101D03*
X144072101Y-119789258D03*
X144354944Y-119506415D03*
X144637786Y-119223573D03*
X144920629Y-118940730D03*
X145203472Y-118657887D03*
X145486314Y-118375045D03*
X145769157Y-118092202D03*
D43*
X145769157Y-116907798D03*
X145486314Y-116624955D03*
X145203472Y-116342113D03*
X144920629Y-116059270D03*
X144637786Y-115776427D03*
X144354944Y-115493585D03*
X144072101Y-115210742D03*
X143789258Y-114927899D03*
X143506415Y-114645056D03*
X143223573Y-114362214D03*
X142940730Y-114079371D03*
X142657887Y-113796528D03*
X142375045Y-113513686D03*
X142092202Y-113230843D03*
D44*
X141500000Y-117500000D03*
%TD*%
D24*
%TO.C,C34*%
X155520000Y-139500000D03*
X156480000Y-139500000D03*
%TD*%
D26*
%TO.C,R34*%
X152175000Y-142000000D03*
X153825000Y-142000000D03*
%TD*%
D22*
%TO.C,C44*%
X137275000Y-140000000D03*
X135725000Y-140000000D03*
%TD*%
D23*
%TO.C,R24*%
X102825000Y-118000000D03*
X101175000Y-118000000D03*
%TD*%
D28*
%TO.C,C23*%
X144339411Y-111160589D03*
X143660589Y-111839411D03*
%TD*%
D11*
%TO.C,J11*%
X141230000Y-146880000D03*
X143770000Y-146880000D03*
X141230000Y-149420000D03*
X143770000Y-149420000D03*
X141230000Y-151960000D03*
X143770000Y-151960000D03*
X141230000Y-144340000D03*
D12*
X143770000Y-144340000D03*
%TD*%
D20*
%TO.C,C24*%
X146548008Y-109451992D03*
X145451992Y-110548008D03*
%TD*%
D45*
%TO.C,L1*%
X115250000Y-116500000D03*
%TD*%
D20*
%TO.C,C7*%
X108048008Y-132451992D03*
X106951992Y-133548008D03*
%TD*%
D26*
%TO.C,R31*%
X105675000Y-138000000D03*
X107325000Y-138000000D03*
%TD*%
D24*
%TO.C,C28*%
X142770000Y-107000000D03*
X143730000Y-107000000D03*
%TD*%
D46*
%TO.C,Y1*%
X153150000Y-109900000D03*
X153150000Y-112100000D03*
X154850000Y-112100000D03*
X154850000Y-109900000D03*
%TD*%
D23*
%TO.C,R3*%
X114825000Y-119000000D03*
X113175000Y-119000000D03*
%TD*%
%TO.C,R25*%
X102825000Y-119500000D03*
X101175000Y-119500000D03*
%TD*%
%TO.C,R26*%
X102825000Y-116500000D03*
X101175000Y-116500000D03*
%TD*%
D47*
%TO.C,L2*%
X140750000Y-109015000D03*
X140750000Y-109985000D03*
%TD*%
D48*
%TO.C,C17*%
X142951992Y-124548008D03*
X144048008Y-123451992D03*
%TD*%
D28*
%TO.C,C11*%
X114339411Y-136160589D03*
X113660589Y-136839411D03*
%TD*%
D49*
%TO.C,L3*%
X141735000Y-107000000D03*
X140765000Y-107000000D03*
%TD*%
D40*
%TO.C,C1*%
X116225000Y-109000000D03*
X117775000Y-109000000D03*
%TD*%
D21*
%TO.C,C36*%
X135000000Y-130775000D03*
X135000000Y-129225000D03*
%TD*%
D26*
%TO.C,R33*%
X105675000Y-142000000D03*
X107325000Y-142000000D03*
%TD*%
D19*
%TO.C,R36*%
X132000000Y-129175000D03*
X132000000Y-130825000D03*
%TD*%
D26*
%TO.C,R32*%
X152175000Y-138000000D03*
X153825000Y-138000000D03*
%TD*%
D13*
%TO.C,R12*%
X111500000Y-111325000D03*
X111500000Y-109675000D03*
%TD*%
%TO.C,R17*%
X108000000Y-107825000D03*
X108000000Y-106175000D03*
%TD*%
D50*
%TO.C,J4*%
X180375000Y-121500000D03*
D11*
X178620000Y-153270000D03*
X178620000Y-150730000D03*
X176080000Y-153270000D03*
X176080000Y-150730000D03*
X173540000Y-153270000D03*
X173540000Y-150730000D03*
X171000000Y-153270000D03*
X171000000Y-150730000D03*
X168460000Y-153270000D03*
X168460000Y-150730000D03*
X165920000Y-153270000D03*
X165920000Y-150730000D03*
X163380000Y-153270000D03*
X163380000Y-150730000D03*
X160840000Y-153270000D03*
X160840000Y-150730000D03*
D12*
X181160000Y-153270000D03*
D11*
X181160000Y-150730000D03*
%TD*%
D30*
%TO.C,R8*%
X132083363Y-116416637D03*
X130916637Y-117583363D03*
%TD*%
D10*
%TO.C,C37*%
X136500000Y-132225000D03*
X136500000Y-133775000D03*
%TD*%
D23*
%TO.C,R10*%
X149825000Y-110500000D03*
X148175000Y-110500000D03*
%TD*%
D48*
%TO.C,C8*%
X104951992Y-131548008D03*
X106048008Y-130451992D03*
%TD*%
D35*
%TO.C,C14*%
X110589411Y-125839411D03*
X109910589Y-125160589D03*
%TD*%
D51*
%TO.C,J3*%
X109880000Y-102849545D03*
X108910000Y-102849545D03*
X107940000Y-102849545D03*
X106970000Y-102849545D03*
X106000000Y-102849545D03*
X105030000Y-102849545D03*
X104060000Y-102849545D03*
X103090000Y-102849545D03*
X102120000Y-102849545D03*
%TD*%
D52*
%TO.C,J9*%
X138900000Y-159250000D03*
D11*
X138380000Y-180480000D03*
X138380000Y-183020000D03*
D53*
X142250000Y-159250000D03*
D11*
X140920000Y-180480000D03*
X140920000Y-183020000D03*
D54*
X145200000Y-159250000D03*
D11*
X143460000Y-180480000D03*
X143460000Y-183020000D03*
D55*
X135100000Y-159250000D03*
D11*
X135840000Y-180480000D03*
D12*
X135840000Y-183020000D03*
%TD*%
M02*
