M48
; DRILL file {KiCad 8.0.2} date 2024-05-28T21:16:51+0100
; FORMAT={-:-/ absolute / metric / decimal}
; #@! TF.CreationDate,2024-05-28T21:16:51+01:00
; #@! TF.GenerationSoftware,Kicad,Pcbnew,8.0.2
; #@! TF.FileFunction,Plated,1,2,PTH
FMAT,2
METRIC
; #@! TA.AperFunction,Plated,PTH,ViaDrill
T1C0.300
; #@! TA.AperFunction,Plated,PTH,ComponentDrill
T2C0.300
; #@! TA.AperFunction,Plated,PTH,ComponentDrill
T3C0.800
; #@! TA.AperFunction,Plated,PTH,ComponentDrill
T4C1.000
%
G90
G05
T1
X101.0Y-133.5
X101.25Y-113.5
X102.0Y-107.25
X102.0Y-125.75
X102.25Y-134.75
X102.5Y-106.5
X103.5Y-129.5
X103.75Y-109.75
X103.75Y-112.25
X103.75Y-114.75
X103.75Y-119.75
X103.75Y-125.5
X104.0Y-130.75
X104.25Y-128.25
X104.5Y-138.0
X104.5Y-140.5
X104.5Y-143.0
X104.5Y-145.5
X105.75Y-112.25
X105.75Y-114.75
X105.75Y-117.25
X105.75Y-119.75
X105.75Y-132.0
X106.0Y-125.25
X106.0Y-126.75
X106.5Y-108.75
X106.5Y-126.0
X106.5Y-128.25
X106.5Y-132.75
X106.5Y-145.5
X107.001Y-127.498
X107.25Y-143.25
X107.5Y-108.75
X107.75Y-112.25
X107.75Y-114.75
X107.75Y-117.25
X107.75Y-119.75
X108.0Y-143.75
X108.25Y-137.75
X108.25Y-142.0
X108.5Y-130.5
X108.75Y-134.75
X109.0Y-138.75
X109.25Y-137.75
X109.5Y-124.75
X109.75Y-112.25
X109.75Y-114.75
X109.75Y-117.25
X109.75Y-119.75
X109.75Y-135.75
X110.0Y-108.75
X110.25Y-133.25
X110.75Y-142.0
X111.0Y-108.75
X111.75Y-112.25
X111.75Y-114.75
X111.75Y-117.25
X111.75Y-119.75
X112.0Y-106.75
X112.0Y-130.75
X112.0Y-135.75
X112.0Y-137.0
X112.25Y-132.75
X112.5Y-109.75
X113.0Y-141.25
X113.25Y-129.0
X113.5Y-114.5
X113.5Y-116.5
X113.5Y-123.5
X113.75Y-127.25
X113.761Y-111.261
X114.0Y-121.25
X114.25Y-137.25
X114.5Y-132.0
X114.5Y-141.25
X114.75Y-112.0
X114.75Y-128.75
X115.0Y-135.5
X115.25Y-109.0
X115.5Y-124.5
X115.5Y-125.5
X115.75Y-137.5
X115.931Y-111.243
X116.0Y-141.25
X117.25Y-137.5
X117.5Y-141.25
X117.9Y-122.409
X118.0Y-128.25
X118.75Y-106.0
X118.75Y-107.5
X118.75Y-137.5
X119.0Y-126.0
X119.0Y-128.5
X119.5Y-129.25
X119.5Y-133.25
X120.25Y-125.75
X120.25Y-128.25
X120.25Y-137.5
X120.315Y-123.288
X121.25Y-133.0
X121.75Y-127.5
X121.75Y-137.5
X122.25Y-141.25
X122.75Y-125.75
X122.75Y-131.5
X122.885Y-123.288
X123.25Y-137.5
X123.75Y-141.25
X124.25Y-130.0
X124.75Y-137.5
X125.25Y-141.25
X125.3Y-109.591
X125.75Y-128.5
X126.25Y-137.5
X126.75Y-141.25
X127.25Y-127.0
X127.269Y-111.243
X127.75Y-137.5
X128.0Y-141.5
X128.554Y-113.469
X128.75Y-125.5
X129.0Y-116.0
X129.0Y-142.5
X130.0Y-143.5
X130.75Y-134.75
X130.75Y-137.5
X131.0Y-125.0
X131.5Y-123.25
X131.5Y-143.5
X131.75Y-112.5
X131.75Y-126.0
X132.25Y-106.25
X132.5Y-125.25
X132.75Y-122.75
X132.75Y-124.0
X133.0Y-143.5
X133.5Y-106.25
X133.5Y-123.5
X134.0Y-142.25
X134.25Y-131.5
X134.5Y-122.75
X134.5Y-137.0
X134.75Y-106.25
X135.05Y-161.75
X135.25Y-122.25
X135.5Y-143.5
X136.0Y-106.5
X136.5Y-139.25
X137.0Y-112.856
X137.0Y-120.75
X137.0Y-143.5
X137.25Y-106.75
X138.25Y-136.25
X138.371Y-123.629
X138.5Y-107.0
X138.5Y-110.0
X138.5Y-112.0
X138.5Y-118.0
X138.5Y-143.5
X138.8Y-161.75
X139.5Y-122.5
X139.75Y-107.25
X139.75Y-108.5
X139.75Y-109.75
X139.75Y-111.0
X140.0Y-112.25
X140.0Y-115.5
X140.0Y-119.5
X140.0Y-142.25
X140.0Y-143.5
X141.5Y-112.75
X141.5Y-114.0
X141.5Y-121.0
X141.5Y-139.75
X142.25Y-108.75
X142.25Y-110.0
X142.25Y-112.0
X142.25Y-124.0
X142.3Y-161.75
X142.381Y-111.0
X142.5Y-120.0
X142.75Y-139.0
X143.0Y-112.5
X143.25Y-108.0
X143.25Y-111.0
X143.25Y-115.75
X143.5Y-122.125
X143.75Y-138.0
X144.0Y-118.5
X144.25Y-110.5
X144.25Y-142.75
X144.5Y-107.75
X144.75Y-137.0
X145.0Y-117.5
X145.25Y-106.75
X145.25Y-141.75
X145.3Y-161.75
X145.75Y-109.0
X146.0Y-136.25
X146.25Y-140.75
X146.5Y-106.5
X147.25Y-114.75
X147.5Y-136.25
X147.5Y-140.0
X147.75Y-106.25
X148.0Y-116.25
X148.25Y-109.5
X149.0Y-106.25
X149.75Y-109.5
X150.25Y-106.25
X150.5Y-112.25
X150.75Y-136.25
X150.75Y-140.0
X151.0Y-109.25
X151.5Y-106.25
X152.25Y-108.75
X152.25Y-112.25
X152.25Y-113.25
X152.75Y-106.25
X153.0Y-145.5
X153.75Y-143.25
X154.0Y-106.25
X154.0Y-108.5
X154.0Y-113.5
X154.5Y-143.75
X154.75Y-137.75
X154.75Y-142.0
X155.25Y-106.25
X155.25Y-132.25
X155.5Y-138.75
X155.75Y-108.75
X155.75Y-109.75
X155.75Y-113.25
X155.75Y-137.75
X156.5Y-106.25
X156.75Y-112.75
X156.75Y-137.75
X157.0Y-109.25
X157.0Y-139.0
X157.25Y-142.0
X157.5Y-110.25
X157.5Y-111.75
X158.0Y-130.5
X158.0Y-133.0
X159.0Y-130.5
X159.0Y-132.0
X160.75Y-160.25
X164.25Y-162.75
X166.75Y-162.75
X169.25Y-162.75
X171.75Y-162.75
X174.25Y-162.75
X176.75Y-162.75
X179.25Y-162.75
X181.0Y-162.75
T2
X120.15Y-116.0
X138.65Y-106.0
T3
X101.0Y-147.0
X101.0Y-149.0
X103.0Y-147.0
X105.0Y-147.0
X107.0Y-147.0
X109.0Y-147.0
X111.0Y-147.0
X111.0Y-149.0
X120.0Y-106.5
X120.0Y-108.5
X122.0Y-108.5
X124.0Y-108.5
X126.0Y-108.5
X128.0Y-108.5
X130.0Y-106.5
X130.0Y-108.5
X147.5Y-147.0
X147.5Y-149.0
X149.5Y-147.0
X151.5Y-147.0
X153.5Y-147.0
X155.5Y-147.0
X157.5Y-147.0
X157.5Y-149.0
T4
X133.425Y-108.235
X133.425Y-110.775
X135.84Y-180.48
X135.84Y-183.02
X135.965Y-108.235
X135.965Y-110.775
X138.38Y-180.48
X138.38Y-183.02
X140.92Y-180.48
X140.92Y-183.02
X141.23Y-144.34
X141.23Y-146.88
X141.23Y-149.42
X141.23Y-151.96
X143.46Y-180.48
X143.46Y-183.02
X143.77Y-144.34
X143.77Y-146.88
X143.77Y-149.42
X143.77Y-151.96
X152.735Y-115.445
X152.735Y-117.985
X152.735Y-120.525
X152.735Y-124.445
X152.735Y-126.985
X152.735Y-129.525
X155.275Y-115.445
X155.275Y-117.985
X155.275Y-120.525
X155.275Y-124.445
X155.275Y-126.985
X155.275Y-129.525
X160.84Y-150.73
X160.84Y-153.27
X160.965Y-187.73
X160.965Y-190.27
X163.38Y-150.73
X163.38Y-153.27
X163.505Y-187.73
X163.505Y-190.27
X165.92Y-150.73
X165.92Y-153.27
X166.045Y-187.73
X166.045Y-190.27
X168.46Y-150.73
X168.46Y-153.27
X168.585Y-187.73
X168.585Y-190.27
X171.0Y-150.73
X171.0Y-153.27
X171.125Y-187.73
X171.125Y-190.27
X173.54Y-150.73
X173.54Y-153.27
X173.665Y-187.73
X173.665Y-190.27
X176.08Y-150.73
X176.08Y-153.27
X176.205Y-187.73
X176.205Y-190.27
X178.62Y-150.73
X178.62Y-153.27
X178.745Y-187.73
X178.745Y-190.27
X181.16Y-150.73
X181.16Y-153.27
X181.285Y-187.73
X181.285Y-190.27
M30
