%TF.GenerationSoftware,KiCad,Pcbnew,8.0.2*%
%TF.CreationDate,2024-05-28T21:16:53+01:00*%
%TF.ProjectId,RMC,524d432e-6b69-4636-9164-5f7063625858,rev?*%
%TF.SameCoordinates,Original*%
%TF.FileFunction,Drillmap*%
%TF.FilePolarity,Positive*%
%FSLAX45Y45*%
G04 Gerber Fmt 4.5, Leading zero omitted, Abs format (unit mm)*
G04 Created by KiCad (PCBNEW 8.0.2) date 2024-05-28 21:16:53*
%MOMM*%
%LPD*%
G01*
G04 APERTURE LIST*
%ADD10C,0.050000*%
%ADD11C,0.200000*%
%ADD12C,0.115200*%
%ADD13C,0.150000*%
%ADD14C,0.100000*%
G04 APERTURE END LIST*
D10*
X17250000Y-15550000D02*
G75*
G02*
X17350000Y-15550000I50000J0D01*
G01*
X14750000Y-15450000D02*
G75*
G02*
X14700000Y-15500000I-50000J0D01*
G01*
X14000000Y-15700000D02*
X14000000Y-15550000D01*
X15750000Y-15100000D02*
X15750000Y-15450000D01*
X16750000Y-15550000D02*
G75*
G02*
X16850000Y-15550000I50000J0D01*
G01*
X16250000Y-15550000D02*
G75*
G02*
X16350000Y-15550000I50000J0D01*
G01*
X16850000Y-15550000D02*
X16850000Y-15917500D01*
X11150000Y-15500000D02*
G75*
G02*
X11100000Y-15450000I0J50000D01*
G01*
X14750000Y-15100000D02*
G75*
G02*
X14800000Y-15050000I50000J0D01*
G01*
X15700000Y-15050000D02*
G75*
G02*
X15750000Y-15100000I0J-50000D01*
G01*
X13000000Y-10050000D02*
G75*
G02*
X13050000Y-10000000I50000J0D01*
G01*
X16250000Y-15550000D02*
X16250000Y-15697500D01*
X11100000Y-15100000D02*
X11100000Y-15450000D01*
X14650000Y-15700000D02*
X14650000Y-15550000D01*
X10011498Y-10550000D02*
X10000000Y-10550000D01*
X11150000Y-15500000D02*
X11820000Y-15500000D01*
X14000000Y-15550000D02*
G75*
G02*
X14100000Y-15550000I50000J0D01*
G01*
X14750000Y-15100000D02*
X14750000Y-15450000D01*
X18500000Y-10200000D02*
X18500000Y-15300000D01*
X15850000Y-15550000D02*
X15850000Y-15697500D01*
X11700000Y-10500000D02*
X11238502Y-10500000D01*
X17250000Y-15550000D02*
X17250000Y-15917500D01*
X15800000Y-15500000D02*
G75*
G02*
X15850000Y-15550000I0J-50000D01*
G01*
X18300000Y-10000000D02*
G75*
G02*
X18500000Y-10200000I0J-200000D01*
G01*
X13230000Y-15500000D02*
G75*
G02*
X13280000Y-15550000I0J-50000D01*
G01*
X17850000Y-15550000D02*
X17850000Y-15917500D01*
X14100000Y-15700000D02*
X14100000Y-15550000D01*
X12050000Y-10500000D02*
X11700000Y-10500000D01*
X10061498Y-10500000D02*
G75*
G02*
X10011498Y-10549998I-49998J0D01*
G01*
X13230000Y-15500000D02*
X12080000Y-15500000D01*
X16350000Y-15550000D02*
X16350000Y-15917500D01*
X11050000Y-15050000D02*
G75*
G02*
X11100000Y-15100000I0J-50000D01*
G01*
X18500000Y-15300000D02*
G75*
G02*
X18300000Y-15500000I-200000J0D01*
G01*
X10000000Y-15050000D02*
X10000000Y-10550000D01*
X17350000Y-15550000D02*
X17350000Y-15917500D01*
X17750000Y-15550000D02*
G75*
G02*
X17850000Y-15550000I50000J0D01*
G01*
X18200000Y-19150000D02*
X15900000Y-19150000D01*
X14650000Y-15550000D02*
G75*
G02*
X14700000Y-15500000I50000J0D01*
G01*
X18250000Y-15550000D02*
X18250000Y-15917500D01*
X11238502Y-10500000D02*
G75*
G02*
X11138502Y-10500000I-50000J0D01*
G01*
X13000000Y-10450000D02*
X13000000Y-10050000D01*
X13280000Y-15700000D02*
X13280000Y-15550000D01*
X15800000Y-15500000D02*
G75*
G02*
X15750000Y-15450000I0J50000D01*
G01*
X17750000Y-15550000D02*
X17750000Y-15917500D01*
X16750000Y-15550000D02*
X16750000Y-15917500D01*
X18250000Y-15550000D02*
G75*
G02*
X18300000Y-15500000I50000J0D01*
G01*
X10150000Y-15050000D02*
X10000000Y-15050000D01*
X13050000Y-10000000D02*
X18300000Y-10000000D01*
X13000000Y-10450000D02*
G75*
G02*
X12950000Y-10500000I-50000J0D01*
G01*
X15800000Y-19050000D02*
X15800000Y-18650000D01*
X15850000Y-15930000D02*
X15850000Y-15697500D01*
X15850000Y-18457500D02*
X15850000Y-15930000D01*
X15870711Y-18479289D02*
X15850000Y-18457500D01*
X16250000Y-15930000D02*
X16250000Y-15697500D01*
X16250000Y-15930000D02*
X16250000Y-18457500D01*
X16250000Y-18457500D02*
X16229289Y-18479289D01*
X16350000Y-16150000D02*
X16350000Y-15917500D01*
X16350000Y-18457500D02*
X16350000Y-16150000D01*
X16370711Y-18479289D02*
X16350000Y-18457500D01*
X16750000Y-16150000D02*
X16750000Y-15917500D01*
X16750000Y-16150000D02*
X16750000Y-18457500D01*
X16750000Y-18457500D02*
X16729289Y-18479289D01*
X16850000Y-16150000D02*
X16850000Y-15917500D01*
X16850000Y-18457500D02*
X16850000Y-16150000D01*
X16870711Y-18479289D02*
X16850000Y-18457500D01*
X17250000Y-16150000D02*
X17250000Y-15917500D01*
X17250000Y-16150000D02*
X17250000Y-18457500D01*
X17250000Y-18457500D02*
X17229289Y-18479289D01*
X17350000Y-16150000D02*
X17350000Y-15917500D01*
X17350000Y-18457500D02*
X17350000Y-16150000D01*
X17370711Y-18479289D02*
X17350000Y-18457500D01*
X17750000Y-16150000D02*
X17750000Y-15917500D01*
X17750000Y-16150000D02*
X17750000Y-18457500D01*
X17750000Y-18457500D02*
X17729289Y-18479289D01*
X17850000Y-16150000D02*
X17850000Y-15917500D01*
X17850000Y-18457500D02*
X17850000Y-16150000D01*
X17870711Y-18479289D02*
X17850000Y-18457500D01*
X18250000Y-16150000D02*
X18250000Y-15917500D01*
X18250000Y-16150000D02*
X18250000Y-18457500D01*
X18250000Y-18457500D02*
X18229289Y-18479289D01*
X18300000Y-19050000D02*
X18300000Y-18650000D01*
X15870711Y-18479289D02*
G75*
G02*
X15800000Y-18650000I-70711J-70711D01*
G01*
X15900000Y-19150000D02*
G75*
G02*
X15800000Y-19050000I0J100000D01*
G01*
X16300000Y-18650000D02*
G75*
G02*
X16229289Y-18479289I0J100000D01*
G01*
X16370711Y-18479289D02*
G75*
G02*
X16300000Y-18650000I-70711J-70711D01*
G01*
X16800000Y-18650000D02*
G75*
G02*
X16729289Y-18479289I0J100000D01*
G01*
X16870711Y-18479289D02*
G75*
G02*
X16800000Y-18650000I-70711J-70711D01*
G01*
X17300000Y-18650000D02*
G75*
G02*
X17229289Y-18479289I0J100000D01*
G01*
X17370711Y-18479289D02*
G75*
G02*
X17300000Y-18650000I-70711J-70711D01*
G01*
X17800000Y-18650000D02*
G75*
G02*
X17729289Y-18479289I0J100000D01*
G01*
X17870711Y-18479289D02*
G75*
G02*
X17800000Y-18650000I-70711J-70711D01*
G01*
X18300000Y-18650000D02*
G75*
G02*
X18229289Y-18479289I0J100000D01*
G01*
X18300000Y-19050000D02*
G75*
G02*
X18200000Y-19150000I-100000J0D01*
G01*
X14800000Y-15050000D02*
X15700000Y-15050000D01*
X12950000Y-10500000D02*
X12050000Y-10500000D01*
X10150000Y-15050000D02*
X11050000Y-15050000D01*
X11820000Y-14260000D02*
X11820000Y-14210000D01*
X11820000Y-14550000D02*
X11820000Y-15500000D01*
X11834645Y-14174645D02*
X11864645Y-14144645D01*
X12000000Y-14130000D02*
X11900000Y-14130000D01*
X12035355Y-14144645D02*
X12065355Y-14174645D01*
X12080000Y-14260000D02*
X12080000Y-14210000D01*
X12080000Y-14550000D02*
X12080000Y-15500000D01*
X11820000Y-14210000D02*
G75*
G02*
X11834645Y-14174645I49999J0D01*
G01*
X11820000Y-14550000D02*
G75*
G02*
X11870076Y-14500000I50000J0D01*
G01*
X11864645Y-14144645D02*
G75*
G02*
X11900000Y-14130000I35356J-35356D01*
G01*
X11870076Y-14499967D02*
G75*
G02*
X11820000Y-14260000I549924J239967D01*
G01*
X12000000Y-14130000D02*
G75*
G02*
X12035355Y-14144645I0J-50000D01*
G01*
X12029924Y-14500000D02*
G75*
G02*
X12080000Y-14550000I76J-50000D01*
G01*
X12065355Y-14174645D02*
G75*
G02*
X12080000Y-14210000I-35355J-35355D01*
G01*
X12080000Y-14260000D02*
G75*
G02*
X12029924Y-14499967I-600000J0D01*
G01*
X16050000Y-12270000D02*
X16050000Y-12470000D01*
X16125000Y-12545000D02*
X17787500Y-12545000D01*
X17787500Y-12195000D02*
X16125000Y-12195000D01*
X17862500Y-12470000D02*
X17862500Y-12270000D01*
X16050000Y-12270000D02*
G75*
G02*
X16125000Y-12195000I75000J0D01*
G01*
X16125000Y-12545000D02*
G75*
G02*
X16050000Y-12470000I0J75000D01*
G01*
X17787500Y-12195000D02*
G75*
G02*
X17862500Y-12270000I0J-75000D01*
G01*
X17862500Y-12470000D02*
G75*
G02*
X17787500Y-12545000I-75000J0D01*
G01*
X10061502Y-10038950D02*
X10061502Y-10500000D01*
X10061502Y-10038950D02*
X11138502Y-10038950D01*
X11138502Y-10038950D02*
X11138502Y-10500000D01*
X13280000Y-17675000D02*
X13280000Y-15700000D01*
X13280000Y-18325000D02*
X13280000Y-17875000D01*
X13380000Y-18425000D02*
X14550000Y-18425000D01*
X14000000Y-17675000D02*
X14000000Y-15700000D01*
X14000000Y-17875000D02*
X14100000Y-17875000D01*
X14100000Y-17675000D02*
X14100000Y-15700000D01*
X14650000Y-17675000D02*
X14650000Y-15700000D01*
X14650000Y-18325000D02*
X14650000Y-17875000D01*
X13280000Y-17675000D02*
G75*
G02*
X13280000Y-17875000I0J-100000D01*
G01*
X13380000Y-18425000D02*
G75*
G02*
X13280000Y-18325000I0J100000D01*
G01*
X14000000Y-17875000D02*
G75*
G02*
X14000000Y-17675000I0J100000D01*
G01*
X14100000Y-17675000D02*
G75*
G02*
X14100000Y-17875000I0J-100000D01*
G01*
X14650000Y-17875000D02*
G75*
G02*
X14650000Y-17675000I0J100000D01*
G01*
X14650000Y-18325000D02*
G75*
G02*
X14550000Y-18425000I-100000J0D01*
G01*
D11*
D12*
X11317400Y-10567400D02*
X11432600Y-10682600D01*
X11432600Y-10567400D02*
X11317400Y-10682600D01*
X18317400Y-10142400D02*
X18432600Y-10257600D01*
X18432600Y-10142400D02*
X18317400Y-10257600D01*
X18317400Y-15142400D02*
X18432600Y-15257600D01*
X18432600Y-15142400D02*
X18317400Y-15257600D01*
D13*
X18112500Y-12150000D02*
G75*
G02*
X17962500Y-12150000I-75000J0D01*
G01*
X17962500Y-12150000D02*
G75*
G02*
X18112500Y-12150000I75000J0D01*
G01*
D14*
X17962500Y-12050000D02*
X17962500Y-12250000D01*
X18112500Y-12250000D02*
G75*
G02*
X17962500Y-12250000I-75000J0D01*
G01*
X18112500Y-12250000D02*
X18112500Y-12050000D01*
X18112500Y-12050000D02*
G75*
G03*
X17962500Y-12050000I-75000J0D01*
G01*
D11*
X10258277Y-19463984D02*
X10258277Y-19263984D01*
X10258277Y-19263984D02*
X10305896Y-19263984D01*
X10305896Y-19263984D02*
X10334467Y-19273508D01*
X10334467Y-19273508D02*
X10353515Y-19292555D01*
X10353515Y-19292555D02*
X10363039Y-19311603D01*
X10363039Y-19311603D02*
X10372563Y-19349698D01*
X10372563Y-19349698D02*
X10372563Y-19378270D01*
X10372563Y-19378270D02*
X10363039Y-19416365D01*
X10363039Y-19416365D02*
X10353515Y-19435412D01*
X10353515Y-19435412D02*
X10334467Y-19454460D01*
X10334467Y-19454460D02*
X10305896Y-19463984D01*
X10305896Y-19463984D02*
X10258277Y-19463984D01*
X10458277Y-19463984D02*
X10458277Y-19330650D01*
X10458277Y-19368746D02*
X10467801Y-19349698D01*
X10467801Y-19349698D02*
X10477324Y-19340174D01*
X10477324Y-19340174D02*
X10496372Y-19330650D01*
X10496372Y-19330650D02*
X10515420Y-19330650D01*
X10582086Y-19463984D02*
X10582086Y-19330650D01*
X10582086Y-19263984D02*
X10572563Y-19273508D01*
X10572563Y-19273508D02*
X10582086Y-19283031D01*
X10582086Y-19283031D02*
X10591610Y-19273508D01*
X10591610Y-19273508D02*
X10582086Y-19263984D01*
X10582086Y-19263984D02*
X10582086Y-19283031D01*
X10705896Y-19463984D02*
X10686848Y-19454460D01*
X10686848Y-19454460D02*
X10677324Y-19435412D01*
X10677324Y-19435412D02*
X10677324Y-19263984D01*
X10810658Y-19463984D02*
X10791610Y-19454460D01*
X10791610Y-19454460D02*
X10782086Y-19435412D01*
X10782086Y-19435412D02*
X10782086Y-19263984D01*
X11039229Y-19463984D02*
X11039229Y-19263984D01*
X11039229Y-19263984D02*
X11105896Y-19406841D01*
X11105896Y-19406841D02*
X11172563Y-19263984D01*
X11172563Y-19263984D02*
X11172563Y-19463984D01*
X11353515Y-19463984D02*
X11353515Y-19359222D01*
X11353515Y-19359222D02*
X11343991Y-19340174D01*
X11343991Y-19340174D02*
X11324943Y-19330650D01*
X11324943Y-19330650D02*
X11286848Y-19330650D01*
X11286848Y-19330650D02*
X11267801Y-19340174D01*
X11353515Y-19454460D02*
X11334467Y-19463984D01*
X11334467Y-19463984D02*
X11286848Y-19463984D01*
X11286848Y-19463984D02*
X11267801Y-19454460D01*
X11267801Y-19454460D02*
X11258277Y-19435412D01*
X11258277Y-19435412D02*
X11258277Y-19416365D01*
X11258277Y-19416365D02*
X11267801Y-19397317D01*
X11267801Y-19397317D02*
X11286848Y-19387793D01*
X11286848Y-19387793D02*
X11334467Y-19387793D01*
X11334467Y-19387793D02*
X11353515Y-19378270D01*
X11448753Y-19330650D02*
X11448753Y-19530650D01*
X11448753Y-19340174D02*
X11467801Y-19330650D01*
X11467801Y-19330650D02*
X11505896Y-19330650D01*
X11505896Y-19330650D02*
X11524943Y-19340174D01*
X11524943Y-19340174D02*
X11534467Y-19349698D01*
X11534467Y-19349698D02*
X11543991Y-19368746D01*
X11543991Y-19368746D02*
X11543991Y-19425889D01*
X11543991Y-19425889D02*
X11534467Y-19444936D01*
X11534467Y-19444936D02*
X11524943Y-19454460D01*
X11524943Y-19454460D02*
X11505896Y-19463984D01*
X11505896Y-19463984D02*
X11467801Y-19463984D01*
X11467801Y-19463984D02*
X11448753Y-19454460D01*
X11629705Y-19444936D02*
X11639229Y-19454460D01*
X11639229Y-19454460D02*
X11629705Y-19463984D01*
X11629705Y-19463984D02*
X11620182Y-19454460D01*
X11620182Y-19454460D02*
X11629705Y-19444936D01*
X11629705Y-19444936D02*
X11629705Y-19463984D01*
X11629705Y-19340174D02*
X11639229Y-19349698D01*
X11639229Y-19349698D02*
X11629705Y-19359222D01*
X11629705Y-19359222D02*
X11620182Y-19349698D01*
X11620182Y-19349698D02*
X11629705Y-19340174D01*
X11629705Y-19340174D02*
X11629705Y-19359222D01*
D12*
X9882300Y-19734900D02*
X9997500Y-19850100D01*
X9997500Y-19734900D02*
X9882300Y-19850100D01*
D11*
X10363039Y-19883984D02*
X10248753Y-19883984D01*
X10305896Y-19883984D02*
X10305896Y-19683984D01*
X10305896Y-19683984D02*
X10286848Y-19712555D01*
X10286848Y-19712555D02*
X10267801Y-19731603D01*
X10267801Y-19731603D02*
X10248753Y-19741127D01*
X10448753Y-19864936D02*
X10458277Y-19874460D01*
X10458277Y-19874460D02*
X10448753Y-19883984D01*
X10448753Y-19883984D02*
X10439229Y-19874460D01*
X10439229Y-19874460D02*
X10448753Y-19864936D01*
X10448753Y-19864936D02*
X10448753Y-19883984D01*
X10648753Y-19883984D02*
X10534467Y-19883984D01*
X10591610Y-19883984D02*
X10591610Y-19683984D01*
X10591610Y-19683984D02*
X10572563Y-19712555D01*
X10572563Y-19712555D02*
X10553515Y-19731603D01*
X10553515Y-19731603D02*
X10534467Y-19741127D01*
X10829705Y-19683984D02*
X10734467Y-19683984D01*
X10734467Y-19683984D02*
X10724944Y-19779222D01*
X10724944Y-19779222D02*
X10734467Y-19769698D01*
X10734467Y-19769698D02*
X10753515Y-19760174D01*
X10753515Y-19760174D02*
X10801134Y-19760174D01*
X10801134Y-19760174D02*
X10820182Y-19769698D01*
X10820182Y-19769698D02*
X10829705Y-19779222D01*
X10829705Y-19779222D02*
X10839229Y-19798270D01*
X10839229Y-19798270D02*
X10839229Y-19845889D01*
X10839229Y-19845889D02*
X10829705Y-19864936D01*
X10829705Y-19864936D02*
X10820182Y-19874460D01*
X10820182Y-19874460D02*
X10801134Y-19883984D01*
X10801134Y-19883984D02*
X10753515Y-19883984D01*
X10753515Y-19883984D02*
X10734467Y-19874460D01*
X10734467Y-19874460D02*
X10724944Y-19864936D01*
X10915420Y-19703031D02*
X10924944Y-19693508D01*
X10924944Y-19693508D02*
X10943991Y-19683984D01*
X10943991Y-19683984D02*
X10991610Y-19683984D01*
X10991610Y-19683984D02*
X11010658Y-19693508D01*
X11010658Y-19693508D02*
X11020182Y-19703031D01*
X11020182Y-19703031D02*
X11029705Y-19722079D01*
X11029705Y-19722079D02*
X11029705Y-19741127D01*
X11029705Y-19741127D02*
X11020182Y-19769698D01*
X11020182Y-19769698D02*
X10905896Y-19883984D01*
X10905896Y-19883984D02*
X11029705Y-19883984D01*
X11115420Y-19883984D02*
X11115420Y-19750650D01*
X11115420Y-19769698D02*
X11124944Y-19760174D01*
X11124944Y-19760174D02*
X11143991Y-19750650D01*
X11143991Y-19750650D02*
X11172563Y-19750650D01*
X11172563Y-19750650D02*
X11191610Y-19760174D01*
X11191610Y-19760174D02*
X11201134Y-19779222D01*
X11201134Y-19779222D02*
X11201134Y-19883984D01*
X11201134Y-19779222D02*
X11210658Y-19760174D01*
X11210658Y-19760174D02*
X11229705Y-19750650D01*
X11229705Y-19750650D02*
X11258277Y-19750650D01*
X11258277Y-19750650D02*
X11277324Y-19760174D01*
X11277324Y-19760174D02*
X11286848Y-19779222D01*
X11286848Y-19779222D02*
X11286848Y-19883984D01*
X11382086Y-19883984D02*
X11382086Y-19750650D01*
X11382086Y-19769698D02*
X11391610Y-19760174D01*
X11391610Y-19760174D02*
X11410658Y-19750650D01*
X11410658Y-19750650D02*
X11439229Y-19750650D01*
X11439229Y-19750650D02*
X11458277Y-19760174D01*
X11458277Y-19760174D02*
X11467801Y-19779222D01*
X11467801Y-19779222D02*
X11467801Y-19883984D01*
X11467801Y-19779222D02*
X11477324Y-19760174D01*
X11477324Y-19760174D02*
X11496372Y-19750650D01*
X11496372Y-19750650D02*
X11524943Y-19750650D01*
X11524943Y-19750650D02*
X11543991Y-19760174D01*
X11543991Y-19760174D02*
X11553515Y-19779222D01*
X11553515Y-19779222D02*
X11553515Y-19883984D01*
X11943991Y-19674460D02*
X11772563Y-19931603D01*
X12201134Y-19683984D02*
X12220182Y-19683984D01*
X12220182Y-19683984D02*
X12239229Y-19693508D01*
X12239229Y-19693508D02*
X12248753Y-19703031D01*
X12248753Y-19703031D02*
X12258277Y-19722079D01*
X12258277Y-19722079D02*
X12267801Y-19760174D01*
X12267801Y-19760174D02*
X12267801Y-19807793D01*
X12267801Y-19807793D02*
X12258277Y-19845889D01*
X12258277Y-19845889D02*
X12248753Y-19864936D01*
X12248753Y-19864936D02*
X12239229Y-19874460D01*
X12239229Y-19874460D02*
X12220182Y-19883984D01*
X12220182Y-19883984D02*
X12201134Y-19883984D01*
X12201134Y-19883984D02*
X12182086Y-19874460D01*
X12182086Y-19874460D02*
X12172563Y-19864936D01*
X12172563Y-19864936D02*
X12163039Y-19845889D01*
X12163039Y-19845889D02*
X12153515Y-19807793D01*
X12153515Y-19807793D02*
X12153515Y-19760174D01*
X12153515Y-19760174D02*
X12163039Y-19722079D01*
X12163039Y-19722079D02*
X12172563Y-19703031D01*
X12172563Y-19703031D02*
X12182086Y-19693508D01*
X12182086Y-19693508D02*
X12201134Y-19683984D01*
X12353515Y-19864936D02*
X12363039Y-19874460D01*
X12363039Y-19874460D02*
X12353515Y-19883984D01*
X12353515Y-19883984D02*
X12343991Y-19874460D01*
X12343991Y-19874460D02*
X12353515Y-19864936D01*
X12353515Y-19864936D02*
X12353515Y-19883984D01*
X12486848Y-19683984D02*
X12505896Y-19683984D01*
X12505896Y-19683984D02*
X12524944Y-19693508D01*
X12524944Y-19693508D02*
X12534467Y-19703031D01*
X12534467Y-19703031D02*
X12543991Y-19722079D01*
X12543991Y-19722079D02*
X12553515Y-19760174D01*
X12553515Y-19760174D02*
X12553515Y-19807793D01*
X12553515Y-19807793D02*
X12543991Y-19845889D01*
X12543991Y-19845889D02*
X12534467Y-19864936D01*
X12534467Y-19864936D02*
X12524944Y-19874460D01*
X12524944Y-19874460D02*
X12505896Y-19883984D01*
X12505896Y-19883984D02*
X12486848Y-19883984D01*
X12486848Y-19883984D02*
X12467801Y-19874460D01*
X12467801Y-19874460D02*
X12458277Y-19864936D01*
X12458277Y-19864936D02*
X12448753Y-19845889D01*
X12448753Y-19845889D02*
X12439229Y-19807793D01*
X12439229Y-19807793D02*
X12439229Y-19760174D01*
X12439229Y-19760174D02*
X12448753Y-19722079D01*
X12448753Y-19722079D02*
X12458277Y-19703031D01*
X12458277Y-19703031D02*
X12467801Y-19693508D01*
X12467801Y-19693508D02*
X12486848Y-19683984D01*
X12724944Y-19750650D02*
X12724944Y-19883984D01*
X12677325Y-19674460D02*
X12629706Y-19817317D01*
X12629706Y-19817317D02*
X12753515Y-19817317D01*
X12924944Y-19683984D02*
X12829706Y-19683984D01*
X12829706Y-19683984D02*
X12820182Y-19779222D01*
X12820182Y-19779222D02*
X12829706Y-19769698D01*
X12829706Y-19769698D02*
X12848753Y-19760174D01*
X12848753Y-19760174D02*
X12896372Y-19760174D01*
X12896372Y-19760174D02*
X12915420Y-19769698D01*
X12915420Y-19769698D02*
X12924944Y-19779222D01*
X12924944Y-19779222D02*
X12934467Y-19798270D01*
X12934467Y-19798270D02*
X12934467Y-19845889D01*
X12934467Y-19845889D02*
X12924944Y-19864936D01*
X12924944Y-19864936D02*
X12915420Y-19874460D01*
X12915420Y-19874460D02*
X12896372Y-19883984D01*
X12896372Y-19883984D02*
X12848753Y-19883984D01*
X12848753Y-19883984D02*
X12829706Y-19874460D01*
X12829706Y-19874460D02*
X12820182Y-19864936D01*
X13105896Y-19750650D02*
X13105896Y-19883984D01*
X13058277Y-19674460D02*
X13010658Y-19817317D01*
X13010658Y-19817317D02*
X13134467Y-19817317D01*
X13201134Y-19683984D02*
X13201134Y-19722079D01*
X13277325Y-19683984D02*
X13277325Y-19722079D01*
X13572563Y-19960174D02*
X13563039Y-19950650D01*
X13563039Y-19950650D02*
X13543991Y-19922079D01*
X13543991Y-19922079D02*
X13534468Y-19903031D01*
X13534468Y-19903031D02*
X13524944Y-19874460D01*
X13524944Y-19874460D02*
X13515420Y-19826841D01*
X13515420Y-19826841D02*
X13515420Y-19788746D01*
X13515420Y-19788746D02*
X13524944Y-19741127D01*
X13524944Y-19741127D02*
X13534468Y-19712555D01*
X13534468Y-19712555D02*
X13543991Y-19693508D01*
X13543991Y-19693508D02*
X13563039Y-19664936D01*
X13563039Y-19664936D02*
X13572563Y-19655412D01*
X13629706Y-19683984D02*
X13753515Y-19683984D01*
X13753515Y-19683984D02*
X13686848Y-19760174D01*
X13686848Y-19760174D02*
X13715420Y-19760174D01*
X13715420Y-19760174D02*
X13734468Y-19769698D01*
X13734468Y-19769698D02*
X13743991Y-19779222D01*
X13743991Y-19779222D02*
X13753515Y-19798270D01*
X13753515Y-19798270D02*
X13753515Y-19845889D01*
X13753515Y-19845889D02*
X13743991Y-19864936D01*
X13743991Y-19864936D02*
X13734468Y-19874460D01*
X13734468Y-19874460D02*
X13715420Y-19883984D01*
X13715420Y-19883984D02*
X13658277Y-19883984D01*
X13658277Y-19883984D02*
X13639229Y-19874460D01*
X13639229Y-19874460D02*
X13629706Y-19864936D01*
X13991610Y-19883984D02*
X13991610Y-19683984D01*
X14077325Y-19883984D02*
X14077325Y-19779222D01*
X14077325Y-19779222D02*
X14067801Y-19760174D01*
X14067801Y-19760174D02*
X14048753Y-19750650D01*
X14048753Y-19750650D02*
X14020182Y-19750650D01*
X14020182Y-19750650D02*
X14001134Y-19760174D01*
X14001134Y-19760174D02*
X13991610Y-19769698D01*
X14201134Y-19883984D02*
X14182087Y-19874460D01*
X14182087Y-19874460D02*
X14172563Y-19864936D01*
X14172563Y-19864936D02*
X14163039Y-19845889D01*
X14163039Y-19845889D02*
X14163039Y-19788746D01*
X14163039Y-19788746D02*
X14172563Y-19769698D01*
X14172563Y-19769698D02*
X14182087Y-19760174D01*
X14182087Y-19760174D02*
X14201134Y-19750650D01*
X14201134Y-19750650D02*
X14229706Y-19750650D01*
X14229706Y-19750650D02*
X14248753Y-19760174D01*
X14248753Y-19760174D02*
X14258277Y-19769698D01*
X14258277Y-19769698D02*
X14267801Y-19788746D01*
X14267801Y-19788746D02*
X14267801Y-19845889D01*
X14267801Y-19845889D02*
X14258277Y-19864936D01*
X14258277Y-19864936D02*
X14248753Y-19874460D01*
X14248753Y-19874460D02*
X14229706Y-19883984D01*
X14229706Y-19883984D02*
X14201134Y-19883984D01*
X14382087Y-19883984D02*
X14363039Y-19874460D01*
X14363039Y-19874460D02*
X14353515Y-19855412D01*
X14353515Y-19855412D02*
X14353515Y-19683984D01*
X14534468Y-19874460D02*
X14515420Y-19883984D01*
X14515420Y-19883984D02*
X14477325Y-19883984D01*
X14477325Y-19883984D02*
X14458277Y-19874460D01*
X14458277Y-19874460D02*
X14448753Y-19855412D01*
X14448753Y-19855412D02*
X14448753Y-19779222D01*
X14448753Y-19779222D02*
X14458277Y-19760174D01*
X14458277Y-19760174D02*
X14477325Y-19750650D01*
X14477325Y-19750650D02*
X14515420Y-19750650D01*
X14515420Y-19750650D02*
X14534468Y-19760174D01*
X14534468Y-19760174D02*
X14543991Y-19779222D01*
X14543991Y-19779222D02*
X14543991Y-19798270D01*
X14543991Y-19798270D02*
X14448753Y-19817317D01*
X14620182Y-19874460D02*
X14639230Y-19883984D01*
X14639230Y-19883984D02*
X14677325Y-19883984D01*
X14677325Y-19883984D02*
X14696372Y-19874460D01*
X14696372Y-19874460D02*
X14705896Y-19855412D01*
X14705896Y-19855412D02*
X14705896Y-19845889D01*
X14705896Y-19845889D02*
X14696372Y-19826841D01*
X14696372Y-19826841D02*
X14677325Y-19817317D01*
X14677325Y-19817317D02*
X14648753Y-19817317D01*
X14648753Y-19817317D02*
X14629706Y-19807793D01*
X14629706Y-19807793D02*
X14620182Y-19788746D01*
X14620182Y-19788746D02*
X14620182Y-19779222D01*
X14620182Y-19779222D02*
X14629706Y-19760174D01*
X14629706Y-19760174D02*
X14648753Y-19750650D01*
X14648753Y-19750650D02*
X14677325Y-19750650D01*
X14677325Y-19750650D02*
X14696372Y-19760174D01*
X14772563Y-19960174D02*
X14782087Y-19950650D01*
X14782087Y-19950650D02*
X14801134Y-19922079D01*
X14801134Y-19922079D02*
X14810658Y-19903031D01*
X14810658Y-19903031D02*
X14820182Y-19874460D01*
X14820182Y-19874460D02*
X14829706Y-19826841D01*
X14829706Y-19826841D02*
X14829706Y-19788746D01*
X14829706Y-19788746D02*
X14820182Y-19741127D01*
X14820182Y-19741127D02*
X14810658Y-19712555D01*
X14810658Y-19712555D02*
X14801134Y-19693508D01*
X14801134Y-19693508D02*
X14782087Y-19664936D01*
X14782087Y-19664936D02*
X14772563Y-19655412D01*
X15134468Y-19960174D02*
X15124944Y-19950650D01*
X15124944Y-19950650D02*
X15105896Y-19922079D01*
X15105896Y-19922079D02*
X15096372Y-19903031D01*
X15096372Y-19903031D02*
X15086849Y-19874460D01*
X15086849Y-19874460D02*
X15077325Y-19826841D01*
X15077325Y-19826841D02*
X15077325Y-19788746D01*
X15077325Y-19788746D02*
X15086849Y-19741127D01*
X15086849Y-19741127D02*
X15096372Y-19712555D01*
X15096372Y-19712555D02*
X15105896Y-19693508D01*
X15105896Y-19693508D02*
X15124944Y-19664936D01*
X15124944Y-19664936D02*
X15134468Y-19655412D01*
X15210658Y-19750650D02*
X15210658Y-19883984D01*
X15210658Y-19769698D02*
X15220182Y-19760174D01*
X15220182Y-19760174D02*
X15239230Y-19750650D01*
X15239230Y-19750650D02*
X15267801Y-19750650D01*
X15267801Y-19750650D02*
X15286849Y-19760174D01*
X15286849Y-19760174D02*
X15296372Y-19779222D01*
X15296372Y-19779222D02*
X15296372Y-19883984D01*
X15420182Y-19883984D02*
X15401134Y-19874460D01*
X15401134Y-19874460D02*
X15391611Y-19864936D01*
X15391611Y-19864936D02*
X15382087Y-19845889D01*
X15382087Y-19845889D02*
X15382087Y-19788746D01*
X15382087Y-19788746D02*
X15391611Y-19769698D01*
X15391611Y-19769698D02*
X15401134Y-19760174D01*
X15401134Y-19760174D02*
X15420182Y-19750650D01*
X15420182Y-19750650D02*
X15448753Y-19750650D01*
X15448753Y-19750650D02*
X15467801Y-19760174D01*
X15467801Y-19760174D02*
X15477325Y-19769698D01*
X15477325Y-19769698D02*
X15486849Y-19788746D01*
X15486849Y-19788746D02*
X15486849Y-19845889D01*
X15486849Y-19845889D02*
X15477325Y-19864936D01*
X15477325Y-19864936D02*
X15467801Y-19874460D01*
X15467801Y-19874460D02*
X15448753Y-19883984D01*
X15448753Y-19883984D02*
X15420182Y-19883984D01*
X15543992Y-19750650D02*
X15620182Y-19750650D01*
X15572563Y-19683984D02*
X15572563Y-19855412D01*
X15572563Y-19855412D02*
X15582087Y-19874460D01*
X15582087Y-19874460D02*
X15601134Y-19883984D01*
X15601134Y-19883984D02*
X15620182Y-19883984D01*
X15839230Y-19750650D02*
X15839230Y-19950650D01*
X15839230Y-19760174D02*
X15858277Y-19750650D01*
X15858277Y-19750650D02*
X15896373Y-19750650D01*
X15896373Y-19750650D02*
X15915420Y-19760174D01*
X15915420Y-19760174D02*
X15924944Y-19769698D01*
X15924944Y-19769698D02*
X15934468Y-19788746D01*
X15934468Y-19788746D02*
X15934468Y-19845889D01*
X15934468Y-19845889D02*
X15924944Y-19864936D01*
X15924944Y-19864936D02*
X15915420Y-19874460D01*
X15915420Y-19874460D02*
X15896373Y-19883984D01*
X15896373Y-19883984D02*
X15858277Y-19883984D01*
X15858277Y-19883984D02*
X15839230Y-19874460D01*
X16048753Y-19883984D02*
X16029706Y-19874460D01*
X16029706Y-19874460D02*
X16020182Y-19855412D01*
X16020182Y-19855412D02*
X16020182Y-19683984D01*
X16210658Y-19883984D02*
X16210658Y-19779222D01*
X16210658Y-19779222D02*
X16201134Y-19760174D01*
X16201134Y-19760174D02*
X16182087Y-19750650D01*
X16182087Y-19750650D02*
X16143992Y-19750650D01*
X16143992Y-19750650D02*
X16124944Y-19760174D01*
X16210658Y-19874460D02*
X16191611Y-19883984D01*
X16191611Y-19883984D02*
X16143992Y-19883984D01*
X16143992Y-19883984D02*
X16124944Y-19874460D01*
X16124944Y-19874460D02*
X16115420Y-19855412D01*
X16115420Y-19855412D02*
X16115420Y-19836365D01*
X16115420Y-19836365D02*
X16124944Y-19817317D01*
X16124944Y-19817317D02*
X16143992Y-19807793D01*
X16143992Y-19807793D02*
X16191611Y-19807793D01*
X16191611Y-19807793D02*
X16210658Y-19798270D01*
X16277325Y-19750650D02*
X16353515Y-19750650D01*
X16305896Y-19683984D02*
X16305896Y-19855412D01*
X16305896Y-19855412D02*
X16315420Y-19874460D01*
X16315420Y-19874460D02*
X16334468Y-19883984D01*
X16334468Y-19883984D02*
X16353515Y-19883984D01*
X16496373Y-19874460D02*
X16477325Y-19883984D01*
X16477325Y-19883984D02*
X16439230Y-19883984D01*
X16439230Y-19883984D02*
X16420182Y-19874460D01*
X16420182Y-19874460D02*
X16410658Y-19855412D01*
X16410658Y-19855412D02*
X16410658Y-19779222D01*
X16410658Y-19779222D02*
X16420182Y-19760174D01*
X16420182Y-19760174D02*
X16439230Y-19750650D01*
X16439230Y-19750650D02*
X16477325Y-19750650D01*
X16477325Y-19750650D02*
X16496373Y-19760174D01*
X16496373Y-19760174D02*
X16505896Y-19779222D01*
X16505896Y-19779222D02*
X16505896Y-19798270D01*
X16505896Y-19798270D02*
X16410658Y-19817317D01*
X16677325Y-19883984D02*
X16677325Y-19683984D01*
X16677325Y-19874460D02*
X16658277Y-19883984D01*
X16658277Y-19883984D02*
X16620182Y-19883984D01*
X16620182Y-19883984D02*
X16601134Y-19874460D01*
X16601134Y-19874460D02*
X16591611Y-19864936D01*
X16591611Y-19864936D02*
X16582087Y-19845889D01*
X16582087Y-19845889D02*
X16582087Y-19788746D01*
X16582087Y-19788746D02*
X16591611Y-19769698D01*
X16591611Y-19769698D02*
X16601134Y-19760174D01*
X16601134Y-19760174D02*
X16620182Y-19750650D01*
X16620182Y-19750650D02*
X16658277Y-19750650D01*
X16658277Y-19750650D02*
X16677325Y-19760174D01*
X16753515Y-19960174D02*
X16763039Y-19950650D01*
X16763039Y-19950650D02*
X16782087Y-19922079D01*
X16782087Y-19922079D02*
X16791611Y-19903031D01*
X16791611Y-19903031D02*
X16801135Y-19874460D01*
X16801135Y-19874460D02*
X16810658Y-19826841D01*
X16810658Y-19826841D02*
X16810658Y-19788746D01*
X16810658Y-19788746D02*
X16801135Y-19741127D01*
X16801135Y-19741127D02*
X16791611Y-19712555D01*
X16791611Y-19712555D02*
X16782087Y-19693508D01*
X16782087Y-19693508D02*
X16763039Y-19664936D01*
X16763039Y-19664936D02*
X16753515Y-19655412D01*
D13*
X9997500Y-20056500D02*
G75*
G02*
X9847500Y-20056500I-75000J0D01*
G01*
X9847500Y-20056500D02*
G75*
G02*
X9997500Y-20056500I75000J0D01*
G01*
D11*
X10363039Y-20147984D02*
X10248753Y-20147984D01*
X10305896Y-20147984D02*
X10305896Y-19947984D01*
X10305896Y-19947984D02*
X10286848Y-19976555D01*
X10286848Y-19976555D02*
X10267801Y-19995603D01*
X10267801Y-19995603D02*
X10248753Y-20005127D01*
X10448753Y-20128936D02*
X10458277Y-20138460D01*
X10458277Y-20138460D02*
X10448753Y-20147984D01*
X10448753Y-20147984D02*
X10439229Y-20138460D01*
X10439229Y-20138460D02*
X10448753Y-20128936D01*
X10448753Y-20128936D02*
X10448753Y-20147984D01*
X10639229Y-19947984D02*
X10543991Y-19947984D01*
X10543991Y-19947984D02*
X10534467Y-20043222D01*
X10534467Y-20043222D02*
X10543991Y-20033698D01*
X10543991Y-20033698D02*
X10563039Y-20024174D01*
X10563039Y-20024174D02*
X10610658Y-20024174D01*
X10610658Y-20024174D02*
X10629705Y-20033698D01*
X10629705Y-20033698D02*
X10639229Y-20043222D01*
X10639229Y-20043222D02*
X10648753Y-20062270D01*
X10648753Y-20062270D02*
X10648753Y-20109889D01*
X10648753Y-20109889D02*
X10639229Y-20128936D01*
X10639229Y-20128936D02*
X10629705Y-20138460D01*
X10629705Y-20138460D02*
X10610658Y-20147984D01*
X10610658Y-20147984D02*
X10563039Y-20147984D01*
X10563039Y-20147984D02*
X10543991Y-20138460D01*
X10543991Y-20138460D02*
X10534467Y-20128936D01*
X10772563Y-19947984D02*
X10791610Y-19947984D01*
X10791610Y-19947984D02*
X10810658Y-19957508D01*
X10810658Y-19957508D02*
X10820182Y-19967031D01*
X10820182Y-19967031D02*
X10829705Y-19986079D01*
X10829705Y-19986079D02*
X10839229Y-20024174D01*
X10839229Y-20024174D02*
X10839229Y-20071793D01*
X10839229Y-20071793D02*
X10829705Y-20109889D01*
X10829705Y-20109889D02*
X10820182Y-20128936D01*
X10820182Y-20128936D02*
X10810658Y-20138460D01*
X10810658Y-20138460D02*
X10791610Y-20147984D01*
X10791610Y-20147984D02*
X10772563Y-20147984D01*
X10772563Y-20147984D02*
X10753515Y-20138460D01*
X10753515Y-20138460D02*
X10743991Y-20128936D01*
X10743991Y-20128936D02*
X10734467Y-20109889D01*
X10734467Y-20109889D02*
X10724944Y-20071793D01*
X10724944Y-20071793D02*
X10724944Y-20024174D01*
X10724944Y-20024174D02*
X10734467Y-19986079D01*
X10734467Y-19986079D02*
X10743991Y-19967031D01*
X10743991Y-19967031D02*
X10753515Y-19957508D01*
X10753515Y-19957508D02*
X10772563Y-19947984D01*
X10963039Y-19947984D02*
X10982086Y-19947984D01*
X10982086Y-19947984D02*
X11001134Y-19957508D01*
X11001134Y-19957508D02*
X11010658Y-19967031D01*
X11010658Y-19967031D02*
X11020182Y-19986079D01*
X11020182Y-19986079D02*
X11029705Y-20024174D01*
X11029705Y-20024174D02*
X11029705Y-20071793D01*
X11029705Y-20071793D02*
X11020182Y-20109889D01*
X11020182Y-20109889D02*
X11010658Y-20128936D01*
X11010658Y-20128936D02*
X11001134Y-20138460D01*
X11001134Y-20138460D02*
X10982086Y-20147984D01*
X10982086Y-20147984D02*
X10963039Y-20147984D01*
X10963039Y-20147984D02*
X10943991Y-20138460D01*
X10943991Y-20138460D02*
X10934467Y-20128936D01*
X10934467Y-20128936D02*
X10924944Y-20109889D01*
X10924944Y-20109889D02*
X10915420Y-20071793D01*
X10915420Y-20071793D02*
X10915420Y-20024174D01*
X10915420Y-20024174D02*
X10924944Y-19986079D01*
X10924944Y-19986079D02*
X10934467Y-19967031D01*
X10934467Y-19967031D02*
X10943991Y-19957508D01*
X10943991Y-19957508D02*
X10963039Y-19947984D01*
X11115420Y-20147984D02*
X11115420Y-20014650D01*
X11115420Y-20033698D02*
X11124944Y-20024174D01*
X11124944Y-20024174D02*
X11143991Y-20014650D01*
X11143991Y-20014650D02*
X11172563Y-20014650D01*
X11172563Y-20014650D02*
X11191610Y-20024174D01*
X11191610Y-20024174D02*
X11201134Y-20043222D01*
X11201134Y-20043222D02*
X11201134Y-20147984D01*
X11201134Y-20043222D02*
X11210658Y-20024174D01*
X11210658Y-20024174D02*
X11229705Y-20014650D01*
X11229705Y-20014650D02*
X11258277Y-20014650D01*
X11258277Y-20014650D02*
X11277324Y-20024174D01*
X11277324Y-20024174D02*
X11286848Y-20043222D01*
X11286848Y-20043222D02*
X11286848Y-20147984D01*
X11382086Y-20147984D02*
X11382086Y-20014650D01*
X11382086Y-20033698D02*
X11391610Y-20024174D01*
X11391610Y-20024174D02*
X11410658Y-20014650D01*
X11410658Y-20014650D02*
X11439229Y-20014650D01*
X11439229Y-20014650D02*
X11458277Y-20024174D01*
X11458277Y-20024174D02*
X11467801Y-20043222D01*
X11467801Y-20043222D02*
X11467801Y-20147984D01*
X11467801Y-20043222D02*
X11477324Y-20024174D01*
X11477324Y-20024174D02*
X11496372Y-20014650D01*
X11496372Y-20014650D02*
X11524943Y-20014650D01*
X11524943Y-20014650D02*
X11543991Y-20024174D01*
X11543991Y-20024174D02*
X11553515Y-20043222D01*
X11553515Y-20043222D02*
X11553515Y-20147984D01*
X11943991Y-19938460D02*
X11772563Y-20195603D01*
X12201134Y-19947984D02*
X12220182Y-19947984D01*
X12220182Y-19947984D02*
X12239229Y-19957508D01*
X12239229Y-19957508D02*
X12248753Y-19967031D01*
X12248753Y-19967031D02*
X12258277Y-19986079D01*
X12258277Y-19986079D02*
X12267801Y-20024174D01*
X12267801Y-20024174D02*
X12267801Y-20071793D01*
X12267801Y-20071793D02*
X12258277Y-20109889D01*
X12258277Y-20109889D02*
X12248753Y-20128936D01*
X12248753Y-20128936D02*
X12239229Y-20138460D01*
X12239229Y-20138460D02*
X12220182Y-20147984D01*
X12220182Y-20147984D02*
X12201134Y-20147984D01*
X12201134Y-20147984D02*
X12182086Y-20138460D01*
X12182086Y-20138460D02*
X12172563Y-20128936D01*
X12172563Y-20128936D02*
X12163039Y-20109889D01*
X12163039Y-20109889D02*
X12153515Y-20071793D01*
X12153515Y-20071793D02*
X12153515Y-20024174D01*
X12153515Y-20024174D02*
X12163039Y-19986079D01*
X12163039Y-19986079D02*
X12172563Y-19967031D01*
X12172563Y-19967031D02*
X12182086Y-19957508D01*
X12182086Y-19957508D02*
X12201134Y-19947984D01*
X12353515Y-20128936D02*
X12363039Y-20138460D01*
X12363039Y-20138460D02*
X12353515Y-20147984D01*
X12353515Y-20147984D02*
X12343991Y-20138460D01*
X12343991Y-20138460D02*
X12353515Y-20128936D01*
X12353515Y-20128936D02*
X12353515Y-20147984D01*
X12486848Y-19947984D02*
X12505896Y-19947984D01*
X12505896Y-19947984D02*
X12524944Y-19957508D01*
X12524944Y-19957508D02*
X12534467Y-19967031D01*
X12534467Y-19967031D02*
X12543991Y-19986079D01*
X12543991Y-19986079D02*
X12553515Y-20024174D01*
X12553515Y-20024174D02*
X12553515Y-20071793D01*
X12553515Y-20071793D02*
X12543991Y-20109889D01*
X12543991Y-20109889D02*
X12534467Y-20128936D01*
X12534467Y-20128936D02*
X12524944Y-20138460D01*
X12524944Y-20138460D02*
X12505896Y-20147984D01*
X12505896Y-20147984D02*
X12486848Y-20147984D01*
X12486848Y-20147984D02*
X12467801Y-20138460D01*
X12467801Y-20138460D02*
X12458277Y-20128936D01*
X12458277Y-20128936D02*
X12448753Y-20109889D01*
X12448753Y-20109889D02*
X12439229Y-20071793D01*
X12439229Y-20071793D02*
X12439229Y-20024174D01*
X12439229Y-20024174D02*
X12448753Y-19986079D01*
X12448753Y-19986079D02*
X12458277Y-19967031D01*
X12458277Y-19967031D02*
X12467801Y-19957508D01*
X12467801Y-19957508D02*
X12486848Y-19947984D01*
X12734467Y-19947984D02*
X12639229Y-19947984D01*
X12639229Y-19947984D02*
X12629706Y-20043222D01*
X12629706Y-20043222D02*
X12639229Y-20033698D01*
X12639229Y-20033698D02*
X12658277Y-20024174D01*
X12658277Y-20024174D02*
X12705896Y-20024174D01*
X12705896Y-20024174D02*
X12724944Y-20033698D01*
X12724944Y-20033698D02*
X12734467Y-20043222D01*
X12734467Y-20043222D02*
X12743991Y-20062270D01*
X12743991Y-20062270D02*
X12743991Y-20109889D01*
X12743991Y-20109889D02*
X12734467Y-20128936D01*
X12734467Y-20128936D02*
X12724944Y-20138460D01*
X12724944Y-20138460D02*
X12705896Y-20147984D01*
X12705896Y-20147984D02*
X12658277Y-20147984D01*
X12658277Y-20147984D02*
X12639229Y-20138460D01*
X12639229Y-20138460D02*
X12629706Y-20128936D01*
X12839229Y-20147984D02*
X12877325Y-20147984D01*
X12877325Y-20147984D02*
X12896372Y-20138460D01*
X12896372Y-20138460D02*
X12905896Y-20128936D01*
X12905896Y-20128936D02*
X12924944Y-20100365D01*
X12924944Y-20100365D02*
X12934467Y-20062270D01*
X12934467Y-20062270D02*
X12934467Y-19986079D01*
X12934467Y-19986079D02*
X12924944Y-19967031D01*
X12924944Y-19967031D02*
X12915420Y-19957508D01*
X12915420Y-19957508D02*
X12896372Y-19947984D01*
X12896372Y-19947984D02*
X12858277Y-19947984D01*
X12858277Y-19947984D02*
X12839229Y-19957508D01*
X12839229Y-19957508D02*
X12829706Y-19967031D01*
X12829706Y-19967031D02*
X12820182Y-19986079D01*
X12820182Y-19986079D02*
X12820182Y-20033698D01*
X12820182Y-20033698D02*
X12829706Y-20052746D01*
X12829706Y-20052746D02*
X12839229Y-20062270D01*
X12839229Y-20062270D02*
X12858277Y-20071793D01*
X12858277Y-20071793D02*
X12896372Y-20071793D01*
X12896372Y-20071793D02*
X12915420Y-20062270D01*
X12915420Y-20062270D02*
X12924944Y-20052746D01*
X12924944Y-20052746D02*
X12934467Y-20033698D01*
X13124944Y-20147984D02*
X13010658Y-20147984D01*
X13067801Y-20147984D02*
X13067801Y-19947984D01*
X13067801Y-19947984D02*
X13048753Y-19976555D01*
X13048753Y-19976555D02*
X13029706Y-19995603D01*
X13029706Y-19995603D02*
X13010658Y-20005127D01*
X13201134Y-19947984D02*
X13201134Y-19986079D01*
X13277325Y-19947984D02*
X13277325Y-19986079D01*
X13572563Y-20224174D02*
X13563039Y-20214650D01*
X13563039Y-20214650D02*
X13543991Y-20186079D01*
X13543991Y-20186079D02*
X13534468Y-20167031D01*
X13534468Y-20167031D02*
X13524944Y-20138460D01*
X13524944Y-20138460D02*
X13515420Y-20090841D01*
X13515420Y-20090841D02*
X13515420Y-20052746D01*
X13515420Y-20052746D02*
X13524944Y-20005127D01*
X13524944Y-20005127D02*
X13534468Y-19976555D01*
X13534468Y-19976555D02*
X13543991Y-19957508D01*
X13543991Y-19957508D02*
X13563039Y-19928936D01*
X13563039Y-19928936D02*
X13572563Y-19919412D01*
X13753515Y-20147984D02*
X13639229Y-20147984D01*
X13696372Y-20147984D02*
X13696372Y-19947984D01*
X13696372Y-19947984D02*
X13677325Y-19976555D01*
X13677325Y-19976555D02*
X13658277Y-19995603D01*
X13658277Y-19995603D02*
X13639229Y-20005127D01*
X13982087Y-20138460D02*
X14001134Y-20147984D01*
X14001134Y-20147984D02*
X14039229Y-20147984D01*
X14039229Y-20147984D02*
X14058277Y-20138460D01*
X14058277Y-20138460D02*
X14067801Y-20119412D01*
X14067801Y-20119412D02*
X14067801Y-20109889D01*
X14067801Y-20109889D02*
X14058277Y-20090841D01*
X14058277Y-20090841D02*
X14039229Y-20081317D01*
X14039229Y-20081317D02*
X14010658Y-20081317D01*
X14010658Y-20081317D02*
X13991610Y-20071793D01*
X13991610Y-20071793D02*
X13982087Y-20052746D01*
X13982087Y-20052746D02*
X13982087Y-20043222D01*
X13982087Y-20043222D02*
X13991610Y-20024174D01*
X13991610Y-20024174D02*
X14010658Y-20014650D01*
X14010658Y-20014650D02*
X14039229Y-20014650D01*
X14039229Y-20014650D02*
X14058277Y-20024174D01*
X14182087Y-20147984D02*
X14163039Y-20138460D01*
X14163039Y-20138460D02*
X14153515Y-20119412D01*
X14153515Y-20119412D02*
X14153515Y-19947984D01*
X14286849Y-20147984D02*
X14267801Y-20138460D01*
X14267801Y-20138460D02*
X14258277Y-20128936D01*
X14258277Y-20128936D02*
X14248753Y-20109889D01*
X14248753Y-20109889D02*
X14248753Y-20052746D01*
X14248753Y-20052746D02*
X14258277Y-20033698D01*
X14258277Y-20033698D02*
X14267801Y-20024174D01*
X14267801Y-20024174D02*
X14286849Y-20014650D01*
X14286849Y-20014650D02*
X14315420Y-20014650D01*
X14315420Y-20014650D02*
X14334468Y-20024174D01*
X14334468Y-20024174D02*
X14343991Y-20033698D01*
X14343991Y-20033698D02*
X14353515Y-20052746D01*
X14353515Y-20052746D02*
X14353515Y-20109889D01*
X14353515Y-20109889D02*
X14343991Y-20128936D01*
X14343991Y-20128936D02*
X14334468Y-20138460D01*
X14334468Y-20138460D02*
X14315420Y-20147984D01*
X14315420Y-20147984D02*
X14286849Y-20147984D01*
X14410658Y-20014650D02*
X14486849Y-20014650D01*
X14439230Y-19947984D02*
X14439230Y-20119412D01*
X14439230Y-20119412D02*
X14448753Y-20138460D01*
X14448753Y-20138460D02*
X14467801Y-20147984D01*
X14467801Y-20147984D02*
X14486849Y-20147984D01*
X14534468Y-20224174D02*
X14543991Y-20214650D01*
X14543991Y-20214650D02*
X14563039Y-20186079D01*
X14563039Y-20186079D02*
X14572563Y-20167031D01*
X14572563Y-20167031D02*
X14582087Y-20138460D01*
X14582087Y-20138460D02*
X14591610Y-20090841D01*
X14591610Y-20090841D02*
X14591610Y-20052746D01*
X14591610Y-20052746D02*
X14582087Y-20005127D01*
X14582087Y-20005127D02*
X14572563Y-19976555D01*
X14572563Y-19976555D02*
X14563039Y-19957508D01*
X14563039Y-19957508D02*
X14543991Y-19928936D01*
X14543991Y-19928936D02*
X14534468Y-19919412D01*
X14896372Y-20224174D02*
X14886849Y-20214650D01*
X14886849Y-20214650D02*
X14867801Y-20186079D01*
X14867801Y-20186079D02*
X14858277Y-20167031D01*
X14858277Y-20167031D02*
X14848753Y-20138460D01*
X14848753Y-20138460D02*
X14839230Y-20090841D01*
X14839230Y-20090841D02*
X14839230Y-20052746D01*
X14839230Y-20052746D02*
X14848753Y-20005127D01*
X14848753Y-20005127D02*
X14858277Y-19976555D01*
X14858277Y-19976555D02*
X14867801Y-19957508D01*
X14867801Y-19957508D02*
X14886849Y-19928936D01*
X14886849Y-19928936D02*
X14896372Y-19919412D01*
X14972563Y-20014650D02*
X14972563Y-20147984D01*
X14972563Y-20033698D02*
X14982087Y-20024174D01*
X14982087Y-20024174D02*
X15001134Y-20014650D01*
X15001134Y-20014650D02*
X15029706Y-20014650D01*
X15029706Y-20014650D02*
X15048753Y-20024174D01*
X15048753Y-20024174D02*
X15058277Y-20043222D01*
X15058277Y-20043222D02*
X15058277Y-20147984D01*
X15182087Y-20147984D02*
X15163039Y-20138460D01*
X15163039Y-20138460D02*
X15153515Y-20128936D01*
X15153515Y-20128936D02*
X15143991Y-20109889D01*
X15143991Y-20109889D02*
X15143991Y-20052746D01*
X15143991Y-20052746D02*
X15153515Y-20033698D01*
X15153515Y-20033698D02*
X15163039Y-20024174D01*
X15163039Y-20024174D02*
X15182087Y-20014650D01*
X15182087Y-20014650D02*
X15210658Y-20014650D01*
X15210658Y-20014650D02*
X15229706Y-20024174D01*
X15229706Y-20024174D02*
X15239230Y-20033698D01*
X15239230Y-20033698D02*
X15248753Y-20052746D01*
X15248753Y-20052746D02*
X15248753Y-20109889D01*
X15248753Y-20109889D02*
X15239230Y-20128936D01*
X15239230Y-20128936D02*
X15229706Y-20138460D01*
X15229706Y-20138460D02*
X15210658Y-20147984D01*
X15210658Y-20147984D02*
X15182087Y-20147984D01*
X15305896Y-20014650D02*
X15382087Y-20014650D01*
X15334468Y-19947984D02*
X15334468Y-20119412D01*
X15334468Y-20119412D02*
X15343991Y-20138460D01*
X15343991Y-20138460D02*
X15363039Y-20147984D01*
X15363039Y-20147984D02*
X15382087Y-20147984D01*
X15601134Y-20014650D02*
X15601134Y-20214650D01*
X15601134Y-20024174D02*
X15620182Y-20014650D01*
X15620182Y-20014650D02*
X15658277Y-20014650D01*
X15658277Y-20014650D02*
X15677325Y-20024174D01*
X15677325Y-20024174D02*
X15686849Y-20033698D01*
X15686849Y-20033698D02*
X15696372Y-20052746D01*
X15696372Y-20052746D02*
X15696372Y-20109889D01*
X15696372Y-20109889D02*
X15686849Y-20128936D01*
X15686849Y-20128936D02*
X15677325Y-20138460D01*
X15677325Y-20138460D02*
X15658277Y-20147984D01*
X15658277Y-20147984D02*
X15620182Y-20147984D01*
X15620182Y-20147984D02*
X15601134Y-20138460D01*
X15810658Y-20147984D02*
X15791611Y-20138460D01*
X15791611Y-20138460D02*
X15782087Y-20119412D01*
X15782087Y-20119412D02*
X15782087Y-19947984D01*
X15972563Y-20147984D02*
X15972563Y-20043222D01*
X15972563Y-20043222D02*
X15963039Y-20024174D01*
X15963039Y-20024174D02*
X15943992Y-20014650D01*
X15943992Y-20014650D02*
X15905896Y-20014650D01*
X15905896Y-20014650D02*
X15886849Y-20024174D01*
X15972563Y-20138460D02*
X15953515Y-20147984D01*
X15953515Y-20147984D02*
X15905896Y-20147984D01*
X15905896Y-20147984D02*
X15886849Y-20138460D01*
X15886849Y-20138460D02*
X15877325Y-20119412D01*
X15877325Y-20119412D02*
X15877325Y-20100365D01*
X15877325Y-20100365D02*
X15886849Y-20081317D01*
X15886849Y-20081317D02*
X15905896Y-20071793D01*
X15905896Y-20071793D02*
X15953515Y-20071793D01*
X15953515Y-20071793D02*
X15972563Y-20062270D01*
X16039230Y-20014650D02*
X16115420Y-20014650D01*
X16067801Y-19947984D02*
X16067801Y-20119412D01*
X16067801Y-20119412D02*
X16077325Y-20138460D01*
X16077325Y-20138460D02*
X16096372Y-20147984D01*
X16096372Y-20147984D02*
X16115420Y-20147984D01*
X16258277Y-20138460D02*
X16239230Y-20147984D01*
X16239230Y-20147984D02*
X16201134Y-20147984D01*
X16201134Y-20147984D02*
X16182087Y-20138460D01*
X16182087Y-20138460D02*
X16172563Y-20119412D01*
X16172563Y-20119412D02*
X16172563Y-20043222D01*
X16172563Y-20043222D02*
X16182087Y-20024174D01*
X16182087Y-20024174D02*
X16201134Y-20014650D01*
X16201134Y-20014650D02*
X16239230Y-20014650D01*
X16239230Y-20014650D02*
X16258277Y-20024174D01*
X16258277Y-20024174D02*
X16267801Y-20043222D01*
X16267801Y-20043222D02*
X16267801Y-20062270D01*
X16267801Y-20062270D02*
X16172563Y-20081317D01*
X16439230Y-20147984D02*
X16439230Y-19947984D01*
X16439230Y-20138460D02*
X16420182Y-20147984D01*
X16420182Y-20147984D02*
X16382087Y-20147984D01*
X16382087Y-20147984D02*
X16363039Y-20138460D01*
X16363039Y-20138460D02*
X16353515Y-20128936D01*
X16353515Y-20128936D02*
X16343992Y-20109889D01*
X16343992Y-20109889D02*
X16343992Y-20052746D01*
X16343992Y-20052746D02*
X16353515Y-20033698D01*
X16353515Y-20033698D02*
X16363039Y-20024174D01*
X16363039Y-20024174D02*
X16382087Y-20014650D01*
X16382087Y-20014650D02*
X16420182Y-20014650D01*
X16420182Y-20014650D02*
X16439230Y-20024174D01*
X16515420Y-20224174D02*
X16524944Y-20214650D01*
X16524944Y-20214650D02*
X16543992Y-20186079D01*
X16543992Y-20186079D02*
X16553515Y-20167031D01*
X16553515Y-20167031D02*
X16563039Y-20138460D01*
X16563039Y-20138460D02*
X16572563Y-20090841D01*
X16572563Y-20090841D02*
X16572563Y-20052746D01*
X16572563Y-20052746D02*
X16563039Y-20005127D01*
X16563039Y-20005127D02*
X16553515Y-19976555D01*
X16553515Y-19976555D02*
X16543992Y-19957508D01*
X16543992Y-19957508D02*
X16524944Y-19928936D01*
X16524944Y-19928936D02*
X16515420Y-19919412D01*
M02*
