%TF.GenerationSoftware,KiCad,Pcbnew,8.0.2*%
%TF.CreationDate,2024-05-28T21:16:18+01:00*%
%TF.ProjectId,RMC,524d432e-6b69-4636-9164-5f7063625858,rev?*%
%TF.SameCoordinates,Original*%
%TF.FileFunction,Soldermask,Bot*%
%TF.FilePolarity,Negative*%
%FSLAX46Y46*%
G04 Gerber Fmt 4.6, Leading zero omitted, Abs format (unit mm)*
G04 Created by KiCad (PCBNEW 8.0.2) date 2024-05-28 21:16:18*
%MOMM*%
%LPD*%
G01*
G04 APERTURE LIST*
%ADD10O,1.700000X1.700000*%
%ADD11R,1.700000X1.700000*%
%ADD12R,1.350000X1.350000*%
%ADD13O,1.350000X1.350000*%
%ADD14C,1.300000*%
%ADD15C,0.400000*%
%ADD16O,1.700000X3.700000*%
%ADD17R,0.530000X4.300000*%
G04 APERTURE END LIST*
%TO.C,J3*%
G36*
X100500000Y-100000000D02*
G01*
X111500000Y-100000000D01*
X111500000Y-105000000D01*
X100500000Y-105000000D01*
X100500000Y-100000000D01*
G37*
%TD*%
D10*
%TO.C,J8*%
X163505000Y-190270000D03*
X163505000Y-187730000D03*
X166045000Y-190270000D03*
X166045000Y-187730000D03*
X168585000Y-190270000D03*
X168585000Y-187730000D03*
X171125000Y-190270000D03*
X171125000Y-187730000D03*
X173665000Y-190270000D03*
X173665000Y-187730000D03*
X176205000Y-190270000D03*
X176205000Y-187730000D03*
X178745000Y-190270000D03*
X178745000Y-187730000D03*
X181285000Y-190270000D03*
X181285000Y-187730000D03*
D11*
X160965000Y-190270000D03*
D10*
X160965000Y-187730000D03*
%TD*%
D12*
%TO.C,J6*%
X147500000Y-147000000D03*
D13*
X147500000Y-149000000D03*
X149500000Y-147000000D03*
X151500000Y-147000000D03*
X153500000Y-147000000D03*
X155500000Y-147000000D03*
X157500000Y-147000000D03*
X157500000Y-149000000D03*
%TD*%
D12*
%TO.C,J2*%
X130000000Y-108500000D03*
D13*
X130000000Y-106500000D03*
X128000000Y-108500000D03*
X126000000Y-108500000D03*
X124000000Y-108500000D03*
X122000000Y-108500000D03*
X120000000Y-108500000D03*
X120000000Y-106500000D03*
%TD*%
D14*
%TO.C,H1*%
X113750000Y-106250000D03*
%TD*%
D11*
%TO.C,J7*%
X133425000Y-110775000D03*
D10*
X133425000Y-108235000D03*
X135965000Y-110775000D03*
X135965000Y-108235000D03*
%TD*%
D14*
%TO.C,H2*%
X183750000Y-102000000D03*
%TD*%
D12*
%TO.C,J5*%
X101000000Y-147000000D03*
D13*
X101000000Y-149000000D03*
X103000000Y-147000000D03*
X105000000Y-147000000D03*
X107000000Y-147000000D03*
X109000000Y-147000000D03*
X111000000Y-147000000D03*
X111000000Y-149000000D03*
%TD*%
D14*
%TO.C,H3*%
X183750000Y-152000000D03*
%TD*%
D11*
%TO.C,J10*%
X155275000Y-120525000D03*
D10*
X152735000Y-120525000D03*
X155275000Y-117985000D03*
X152735000Y-117985000D03*
X155275000Y-115445000D03*
X152735000Y-115445000D03*
%TD*%
D11*
%TO.C,J1*%
X155275000Y-129525000D03*
D10*
X152735000Y-129525000D03*
X155275000Y-126985000D03*
X152735000Y-126985000D03*
X155275000Y-124445000D03*
X152735000Y-124445000D03*
%TD*%
%TO.C,J11*%
X141230000Y-146880000D03*
X143770000Y-146880000D03*
X141230000Y-149420000D03*
X143770000Y-149420000D03*
X141230000Y-151960000D03*
X143770000Y-151960000D03*
X141230000Y-144340000D03*
D11*
X143770000Y-144340000D03*
%TD*%
D15*
%TO.C,L1*%
X115250000Y-115500000D03*
%TD*%
D16*
%TO.C,J4*%
X180375000Y-121500000D03*
D10*
X178620000Y-153270000D03*
X178620000Y-150730000D03*
X176080000Y-153270000D03*
X176080000Y-150730000D03*
X173540000Y-153270000D03*
X173540000Y-150730000D03*
X171000000Y-153270000D03*
X171000000Y-150730000D03*
X168460000Y-153270000D03*
X168460000Y-150730000D03*
X165920000Y-153270000D03*
X165920000Y-150730000D03*
X163380000Y-153270000D03*
X163380000Y-150730000D03*
X160840000Y-153270000D03*
X160840000Y-150730000D03*
D11*
X181160000Y-153270000D03*
D10*
X181160000Y-150730000D03*
%TD*%
D17*
%TO.C,J3*%
X110410000Y-102849545D03*
X109440000Y-102849545D03*
X108470000Y-102849545D03*
X107500000Y-102849545D03*
X106530000Y-102849545D03*
X105560000Y-102849545D03*
X104590000Y-102849545D03*
X103620000Y-102849545D03*
X102650000Y-102849545D03*
X101590000Y-102849545D03*
%TD*%
D10*
%TO.C,J9*%
X138380000Y-180480000D03*
X138380000Y-183020000D03*
X140920000Y-180480000D03*
X140920000Y-183020000D03*
X143460000Y-180480000D03*
X143460000Y-183020000D03*
X135840000Y-180480000D03*
D11*
X135840000Y-183020000D03*
%TD*%
M02*
